<?xml version="1.0" encoding="UTF-8"?>
<!DOCTYPE svg PUBLIC "-//W3C//DTD SVG 1.0//EN" "http://www.w3.org/TR/2001/REC-SVG-20010904/DTD/svg10.dtd">
<!-- Creator: CorelDRAW 2017 -->
<svg xmlns="http://www.w3.org/2000/svg" xml:space="preserve" width="178.329mm" height="276.489mm" version="1.0" style="shape-rendering:geometricPrecision; text-rendering:geometricPrecision; image-rendering:optimizeQuality; fill-rule:evenodd; clip-rule:evenodd"
viewBox="0 0 17832.9 27648.94"
 xmlns:xlink="http://www.w3.org/1999/xlink">
 <defs>
  <style type="text/css">
   <![CDATA[    
    .fil3 {fill:#252525}
    .fil1 {fill:#747474}
    .fil4 {fill:#8F8F8F}
   ]]>
  </style>
 </defs>
 <g id="Capa_x0020_1">
  <metadata id="CorelCorpID_0Corel-Layer"/>
  <path fill="CECECE" d="M881.55 18351.93c109.68,94.52 192.77,55.68 251.67,0 -94.35,-34.73 -162.72,-37.43 -251.67,0z"/>
  <path fill="CECECE" d="M16678.64 18519c98.31,37.2 131.13,36.13 223.02,0 -14.18,-11.33 61.07,-38.23 -99.58,-46.24 -125.64,-6.26 -107.62,32.49 -123.44,46.24z"/>
  <path fill="CECECE" d="M7219.91 14013.16c133.09,-8.24 121.57,17.95 117.93,-122.38 -98.72,-0.01 -107.13,16.25 -117.93,122.38z"/>
  <path fill="CECECE" d="M8973.19 8729.81c104.28,-21.74 103.77,14.91 109.45,-123.35l-92.65 -12.54 -16.8 135.89z"/>
  <path class="fil1" d="M17133.31 4314.05c-12.69,0.69 -87.23,5.53 -96.19,4.45 -87.62,-10.57 -29.11,-3.09 -70.36,-32.88 96.53,-61.74 115.59,-81.3 166.55,28.43zm0 0c55.57,-23.58 60.46,85.67 38.07,-61.84 -132.43,-82.92 -199.8,-82.55 -246.95,66.83 25.63,16.66 -17.33,50.98 113.28,43.14 154.93,-9.3 81.95,-36.82 95.6,-48.13z"/>
  <path class="fil1" d="M11701.98 25666.68l275.34 -12.69 -72.42 235.37c61.25,-49.22 49.69,-21.79 88.96,-127.26 28.11,-75.53 24.58,-71.46 17.8,-142.56 -135.81,-5.05 -192.31,-8.94 -309.68,47.14z"/>
  <path class="fil1" d="M3854.28 12170.35l69.22 -65.31 58.96 74.37 -11.84 -138.35c-76.95,32.53 -46.51,-49.89 -116.34,129.29z"/>
  <path class="fil1" d="M16378.27 6145.09l-4.76 -98.12 -65.61 35.32 70.37 62.8z"/>
  <path class="fil1" d="M2642.72 24013.69l78.94 -7.86 -29.76 -76.07 -49.18 83.93z"/>
  <path fill="E2E2E2" d="M14332.73 13540.65c-53.12,100.48 -51.86,74.68 -0.56,172.71 132.85,-4.85 166.56,-43.92 144.06,-183.53 -110.64,-32.66 -49.23,-37.77 -143.5,10.82z"/>
  <path fill="E2E2E2" d="M1216.61 10434.4c3.67,-120.88 5.01,-210.42 -107.55,-259.45 -28.24,56.33 -38.24,46.81 -15.15,139.59 28.44,114.23 40.25,93.61 122.7,119.86z"/>
  <path fill="E2E2E2" d="M975.48 17358.57c12.36,-9.9 131.43,-12.12 0,-191.56 -38.28,45.51 -49.11,-21.69 -51.08,82.82 -3,160.08 34.6,88.96 51.08,108.74z"/>
  <path fill="E2E2E2" d="M16669.59 17671.38c10.58,-12.86 49.65,-22.17 51.29,-89.51 5.62,-231.07 25.22,-29.1 -51.29,-105.72 -59.41,104.27 -75.39,111.01 0,195.23z"/>
  <path class="fil3" d="M16345.03 2875.24c154.09,-19.09 218.31,-154.08 249.07,-287.48 -150.23,3.18 -244.07,135.97 -249.07,287.48z"/>
  <path class="fil3" d="M2177.59 3249.3c80.13,-151.74 -74.21,-296.37 -158.57,-354.86 -28.87,146.12 53.7,295.34 158.57,354.86z"/>
  <path class="fil3" d="M16869.94 13785.11c34.4,-55.99 58.44,-80.27 53.8,-179.74 -7.72,-165.43 -27.33,-107.51 -87.19,-131.94 -52.37,104.03 -52.07,229.6 33.39,311.68z"/>
  <path class="fil3" d="M17059.48 6479.49c-13.64,124.75 -14.74,245.77 77.59,314.03 66.1,-107.87 59.71,-295.26 -77.59,-314.03z"/>
  <path class="fil3" d="M1676.71 24822.74c30.33,-47.63 43.73,-19.38 29.78,-119.13 -19.88,-142.08 -68.17,-97.74 -96.56,-108.46 -38.67,109.83 -41.36,183.94 66.78,227.59z"/>
  <path class="fil3" d="M15934.97 24927.09c35.28,-18.49 50.73,9.72 73.07,-65.8 53.39,-180.45 -39.09,-135.83 -39.68,-136.52 -67.06,67.96 -100.48,94.45 -33.39,202.32z"/>
  <path class="fil3" d="M1140.84 22227.52c-1.71,117.02 32.13,79.34 68.39,99.19 47.45,-83.64 51.38,-87.33 0,-191.67 -32.66,16.01 -66.68,-25.07 -68.39,92.48z"/>
  <path class="fil3" d="M1277.7 15979.71c10.75,8.04 -48.85,56.31 95.39,34.56 70.94,-10.69 61.38,-31.03 91.58,-67.98 -75.05,-55.08 -173.88,-26.81 -186.97,33.42z"/>
  <path class="fil3" d="M16440.2 16079.94c59.03,67.26 85.32,113.66 181.48,33.41 -25.39,-27.29 -31.7,-54.98 -89.93,-64.71 -140.82,-23.57 -80.71,23.28 -91.55,31.3z"/>
  <path fill="#8F8F8F" d="M12527.06 14812.84c-134.46,15.37 -228.2,37.83 -367.06,33.42 -344.25,-10.94 -230.34,-40.54 -266.48,-78.61 213.8,-48.55 351.24,-36.9 576.35,-21.06 -117.91,-66.01 -397.32,-62.28 -506.71,-33.95 -152.71,39.53 -82.67,33.71 -112.78,97.66 106.09,78.34 164.43,65.93 310.07,71.74 202.68,8.07 294.94,10.3 366.61,-69.2z"/>
  <path fill="#8F8F8F" d="M1710.1 24955.57c36.75,35.32 -18.07,-0.18 58,51.03 92.16,62.04 -94.44,-47.8 44.6,25.4 34.3,18.06 66.83,28.36 107.39,44.2 15.62,-48.46 47.47,-108.98 49.86,-150.95 0.04,-0.84 -10.29,-67.02 -11.09,-69.05 -19.12,-49.07 -33.99,-55.93 -49.67,-77.1l5.22 218.06c-22.69,-16.53 -49.88,13.37 -66.32,-95.91 -14.11,-93.76 -1.57,-54.88 16.94,-138.68 -105.75,1.66 -55.28,143.72 -42.12,219.16l-112.81 -26.16z"/>
  <path fill="#8F8F8F" d="M14067.56 12404.83l-152.73 60.84 29.77 -166.4c-57.44,58.88 -20.47,-80.12 -66.26,91.57 -23.42,87.85 0.21,67.83 6.7,104.92 149.4,1.05 113.78,-1.46 182.52,-90.93z"/>
  <path fill="#8F8F8F" d="M1731.16 10428.6c-65.67,38.38 -56.51,28.59 -138.21,63.19l57.73 -235.31c-65.09,77.9 -94.68,157.1 -91.15,259.8 133.77,10.39 117.14,0.63 171.63,-87.68z"/>
  <path fill="#8F8F8F" d="M1556.83 21548.81c-7.47,-33.44 -19.86,-56.75 -14.36,-92.34 9.46,-61.39 20.5,-62.12 34.07,-86.5 38,25.28 68.77,39.77 102.86,66.91 -42.41,-104.22 9.02,-54.57 -102.86,-111.14 -101.39,97.47 -117.29,118.78 -19.71,223.07z"/>
  <path fill="#8F8F8F" d="M2251.02 6206.66c134.47,-29.81 76.94,2.1 146.96,-83.4l-136.83 -68.55c77.38,72.02 -83.68,-3.91 85.22,68.55 -6.53,5.58 -16.48,5.72 -19.44,16.9l-75.91 66.5z"/>
  <path fill="#8F8F8F" d="M8346.86 16846.41c44.31,107.14 -26.86,38.37 74.98,70.58l56.55 -102.86c-76.59,34.96 -27.53,-49.33 -78.81,59.71l-52.72 -27.43z"/>
  <path fill="#8F8F8F" d="M14955.11 24240.03l84.72 -0.67 -52.92 -67.3 -31.8 67.97z"/>
  <path fill="#8F8F8F" d="M8382.42 22141.07l-62.3 18.47 45.65 71.6 16.65 -90.07z"/>
  <path fil="#111111" d="M5281.7 17850.76c114.19,-51 240.36,-77.25 378.47,-39.39 138.72,38.04 105.68,57.29 126.81,374.38l-505.28 -334.99zm6997.09 255.67c-11.06,-158.67 -52.85,-287.16 82.37,-322.27 120.85,-31.36 299.56,-18.64 418.68,10.96 -84.06,83.39 -425.42,299.04 -501.05,311.31zm-7581.24 -3352.8c167.03,-136.04 868.97,-110.68 1158.29,-121.89 411.35,-15.94 829.72,-30.81 1235.01,-44.52 626.76,-21.18 5894.47,-53.8 6202.02,58.16 109.81,39.97 82.62,123.79 73.47,265.01 -44.72,690.78 -206.83,1836.43 -340.44,2501.16 -50,248.77 -144.37,219.31 -396.58,219.78 -1134.13,2.13 -7331.45,102.17 -7555.35,27.22 -123.8,-526.19 -454.64,-2410.63 -376.42,-2904.92zm9512.52 475.87c729.29,75.54 725.72,-649.23 1111.5,-710.94 10.16,353.96 -202.11,877.19 -341.63,1143.43 -246.92,471.15 -578.74,697.32 -578.49,919.13 438.44,152.09 850.5,-53.41 1130.76,-133.5 -171.37,585.51 -1408.72,1440.85 -2039.02,1666.72 -233.84,83.8 -826.06,273.28 -1048.74,56.7 1033.56,-284.42 736.6,-1764.34 1029.11,-2893.22l1384.94 -460.32c-90.58,139.1 -575,316.49 -648.43,412zm-11420.54 -91.66l181.82 265.63c26.13,-454.68 -274.27,-509.77 -298.77,-837.5 135.16,20.64 133.02,48.89 239.54,111.96 847.71,501.78 954.52,371.81 1698.36,631.19 32.69,605.27 108.18,1190.79 206.49,1777.33 88.78,529.72 84.21,706.96 486.8,975.19 48.88,32.57 84.64,60.29 144.9,91.29 31.06,15.98 62.93,25.48 91.08,43.19 47.35,29.83 31.25,24.3 59.08,55.58 -151.59,83.15 -447.14,55.44 -616.23,31.86 -165.79,-23.13 -316.1,-66.72 -476.69,-123.4 -634.6,-223.95 -1944.3,-1045 -2062.22,-1644.4 305.44,104.98 862.45,291.18 1204.97,98.77 -308.43,-394.33 -738.08,-776.53 -859.13,-1476.69zm10700.94 -81.74c183.28,-735.1 -722.61,-600.74 -1330.16,-621.69 -2020.78,-69.7 -4855.71,-48.55 -6809.65,53.18 -477.21,24.85 -936.89,75.88 -795.64,632.09 -459.02,-29.01 -1187.46,-331.34 -1566,-551.26 -152.26,-88.45 -301,-216.24 -446.48,-268.57 -46.6,1334.59 757.31,2041.15 841.86,2220.32 -260.76,23.33 -471.03,-4.71 -697.37,-76.74 -311.53,-99.15 -432.16,-215.16 -522.98,-242.22 15.63,624.45 1038.53,1460.84 1553.63,1749.75 392.93,220.39 1442.62,675.32 1929.31,504.97 325.59,-113.96 261.9,-270.14 285.9,-571.76 201.24,-118.02 1795.53,-65.44 2121.64,-66.56l4032.29 -20.51c-64.88,1189.9 1640.62,416.25 2166.54,110.17 618.44,-359.93 1400.57,-1049.09 1531.58,-1750.65 -117.61,-2.84 -119.38,42.99 -235.7,104.08 -268,140.77 -611.55,226.61 -920.66,195.01 179.65,-362.8 831.08,-820.12 824.04,-2195.88 -145.13,48.76 -250.13,147.18 -439.64,257.83 -155.72,90.92 -280.54,157.85 -445.76,228.06 -347.76,147.78 -686.32,266.91 -1076.75,310.38z"/>
  <path fil="#111111" d="M2642.72 24013.69l49.18 -83.93 29.76 76.07c30.02,206.79 -2.44,409.74 10.62,628.67 19.16,321.27 174.23,257.62 183.39,499.99 -117.81,227.8 -393.06,257.52 -698.9,213.48l-514.07 -171.85c-129.71,-66.97 -95.05,-37.67 -135.57,-153.77 174.88,38.28 190.17,110.88 402.46,109.5l-49.5 -55.65c-40.56,-15.84 -73.09,-26.14 -107.39,-44.2 -139.04,-73.2 47.56,36.64 -44.6,-25.4 -76.07,-51.21 -21.25,-15.71 -58,-51.03l-176.04 -42.34c-33.86,-244.27 -79.85,-337.96 15.01,-473.49 4.13,-5.9 12.95,-15.54 16.46,-20.18 3.49,-4.6 11.44,-12.99 16.3,-20.12 -66.94,-30.43 -182.51,-23.76 -196.38,-288.79 275.71,84.9 376.09,676.86 825.8,488.31 131.1,-54.98 145.06,-117.59 201,-199.87 4.07,-5.97 12.45,-16.41 15.85,-21.27 3.48,-4.97 10.98,-14.36 16.62,-21.42 28.73,44.56 43.01,-74.29 36.14,106.06 -5.81,152.42 -159.63,259.77 30.64,373.02 112.91,-87.24 138.51,-695.39 131.22,-821.79zm-88.34 118.46c-165.95,90.35 -176.65,79.88 -282.12,228.46 -188.63,265.77 -405.05,92.58 -565.94,-122.77 -40.85,-54.68 -68.23,-93.32 -106.76,-130.36 -251.65,-241.85 -210.33,-261.44 -316.59,-883.5 -47.81,-279.83 -12.89,-203.96 93.66,-360.74 98.03,-144.24 4.74,-165.6 154,-310.28 247.01,-45.06 332.06,85.38 434.05,255.66 132.71,221.53 176.6,231.23 418.99,313.68 65.58,171.78 160.32,780.76 170.71,1009.85zm-1044.62 -1735.2c-161.31,58.06 -210.71,356 -279.91,455.07 -38.72,55.44 -4.85,12.34 -60.63,49.93 -130.1,-311.75 -74.32,-1008.05 -33.92,-1402.7 25.21,-246.32 74.75,-411.77 48.33,-709.83 -20.17,-227.31 -138.07,-419.6 -101.06,-665.35 135.09,-24.39 285.7,-8.04 402.93,54.89 121.59,602.97 289.1,1300.14 628.64,1778.87 86.1,121.4 147.27,147.86 165.65,302.19 37.35,313.51 146.4,432.86 189.35,733.92 -288.79,-56.96 -331.75,-135.2 -459.96,-331.33 -118.5,-181.25 -217.34,-312.29 -499.42,-265.66zm-333.92 -2742.41c119.44,-53.89 37.35,-57.14 166.95,-94.49 110.13,132.95 117.53,239.05 95.18,422.14 -281.65,46 -422.73,-115.02 -417.04,-394.62 164.49,0.03 16.82,-19.06 154.91,66.97zm65.23 -633.01c24.57,190.46 87.03,202.33 25.68,424.16 -231.43,52.48 -244.98,-205.5 -276.36,-410.46 -36.1,-235.69 -110.24,-339.56 -147.88,-511.24 689.41,-36.93 345.25,84.22 398.56,497.54zm-359.52 -669.6c88.95,-37.43 157.32,-34.73 251.67,0 -58.9,55.68 -141.99,94.52 -251.67,0zm1913.42 4509.99c-5.28,-119.17 -16.74,-165.22 -57.11,-275.27l111.53 23.12 -186.34 -233.94c-194.87,-262.91 -237.71,-603.52 -276.5,-932.13 -58.53,-495.88 -103.64,-2517.21 660.24,-2475.14 533.19,29.36 473.29,729.9 410.54,1072.94 -43.69,50.32 -96.66,-31.72 -10.86,120.03 0.45,-0.24 41.27,-36.54 360.92,-36.54 -2.58,151.31 2.76,277.94 -9.17,430.04l-13.88 306.5c30.06,115.19 -15.42,30.93 62.72,96.35l86.47 -1718.25c254.94,22.68 894.43,108.45 1056.1,194.42l13.32 -57.75 47.69 11.23c-154.43,-300.24 -270.67,-108.23 -767.47,-273.13 -631.73,-209.69 -489.61,371.69 -502.63,475.97 -102.81,-53.12 -79.94,-95.13 -126.08,-208.37 -304.41,-747.14 -1014.16,-805.38 -1265.23,81.05 -317.9,1122.4 -42.09,2221.47 -59.38,2581.98 -340.86,-544.61 -562.51,-1247.24 -710.81,-1927.26 -84.81,-388.88 -127.16,-754.85 -175.87,-1160.89 -45.09,-375.9 -84.62,-871.13 -567.86,-769.14 -282.5,182.1 -90.56,685.31 -32.93,1006.55 280.14,1561.58 39.17,2384.88 175.07,3558.32 83.83,723.8 233.96,1433.76 396.97,2101.49 98.99,405.49 213.52,490.89 643.65,599.08 184.28,46.36 376.48,69.61 570,33.34 261.34,-48.97 251.36,-95.16 397.84,-231.64 12.78,-316.43 -186.25,-1110.12 -264.62,-1446.69l-278.85 -1290.78c-2.89,-85.69 12.76,-65.25 29.06,-89.25 64.91,139.51 149.69,344.01 283.47,433.76z"/>
  <path fil="#111111" d="M14955.11 24240.03l31.8 -67.97 52.92 67.3 62.89 695.19c230.49,-51.4 99.06,-226.61 91.01,-450.17 151.11,66.99 273.72,380.05 583.75,190.45 202.42,-123.79 222.74,-371.09 453.46,-437 -18.1,139.15 -98.81,210.52 -158.43,295.26 57.53,205.78 64.79,445.12 -177.49,560.55 -110.89,52.83 -132.27,4.05 -211.28,107.68 140.47,61.35 147.24,-28.82 346.26,-70.94 -112.11,320.92 -1027.75,452.74 -1237.26,137.77 -30.62,-260.32 95.91,-254.07 149.57,-457.09 30.37,-114.93 17.64,-438.14 12.8,-571.03zm180.89 -7.65c11.05,-174.64 118.95,-970.71 253.59,-1041.1 93.85,-49.06 124.13,-9.62 226.37,-113.57 110.5,-112.34 308.91,-541.06 519.36,-410.53 29.82,38.74 232.61,491.78 234.73,529.85 21.3,382.1 -287.43,1407.07 -887.11,1381.97 -145.68,-208.83 -134.85,-242.57 -346.94,-346.62zm125.55 -1160.28c216.94,-1098.06 600.47,-1161.76 891.18,-2259.28 97.86,-369.48 15.21,-626.41 473.17,-547.59 60.28,200.68 -66.12,423.93 -92.45,658.15 -75.09,667.76 167.48,1544.6 -64.21,2061 -130.26,-134.61 -109.69,-325.13 -302.59,-478.07 -516.86,-50.03 -392.52,489.61 -905.1,565.79zm1107.15 -2982.76c-80.23,-149.04 -17.41,-284.06 70.27,-401.87l130.44 100.21 146.51 -76.76c-14.16,218.8 -94.43,487.99 -347.22,378.42zm200.71 -471.3c-170.72,-157.22 4.51,-369.38 -8.77,-631.57 -17.73,-349.57 -121.08,-367.35 360.79,-313.23 0,104.71 -46.33,95.14 -86.07,210.8 -99.86,290.75 -54.03,660.97 -265.95,734zm109.23 -1099.04c15.82,-13.75 -2.2,-52.5 123.44,-46.24 160.65,8.01 85.4,34.91 99.58,46.24 -91.89,36.13 -124.71,37.2 -223.02,0zm394.15 -100.24c-126.54,-76.15 -344.28,-96.9 -499.02,-27.64 -172.45,77.19 -151.08,215.37 -169.53,429.81 -89.2,1037.23 -357.7,1931.83 -761.27,2848.99 -405.12,920.66 -362.77,780.13 -597.06,1809.35 -74.56,327.54 -484.46,1732.2 -315.95,1958.47 168.35,226.07 765.69,154.38 1005.54,66.92 369.16,-134.6 371.28,-325.61 478.41,-724.25 170.5,-634.5 331.73,-1302.59 417.17,-1985.15 144.54,-1154.54 -1.03,-2050.72 252.18,-3359.07 39.79,-205.63 207.07,-879.69 189.53,-1017.43z"/>
  <path fil="#111111" d="M7962.46 23577.1l44.4 -36.76 -675.03 -3549.73 132.16 -51.73c516.99,-113.18 475.41,-160.01 664.68,1086.88 49.89,328.71 182.66,801.62 191.45,1133.78l62.3 -18.47c36.23,-347.99 307.45,-2160.24 407.61,-2349.05l577.27 23.04 -3.06 140.46c57.98,-54.55 13.51,-10.55 54.5,-89.62 54.22,-104.6 -37.26,-7.64 28.54,-54.18 -55.33,-116.67 -130.52,-174.39 -289.16,-200.45 -599.67,-98.49 -518.22,155.7 -617.41,731.75 -34.37,199.59 -62.25,540.06 -142.27,681.41 -57.55,-411.19 -225.81,-1062.3 -444.09,-1296.59 -143.53,1.27 -659.21,22.84 -719.62,137.18 -29.27,265.63 229.36,1542.01 290.5,1884.95 58.29,326.9 102.89,648.9 163.12,933.57 42.9,202.83 114.77,589.53 196.82,782.35 3.25,7.64 5.74,16.58 9.47,23.94l67.82 87.27z"/>
  <path fil="#111111" d="M2652.28 5692.74c-241.62,-92.91 -341.66,-209.33 -688.27,-297.05 -278.24,-70.41 -729.51,2.62 -916.68,-74.2 -459.15,-188.45 -648.44,-881.95 -338.95,-1369.83 305.62,-481.74 1087.84,223.7 1260.86,441.14 222.24,279.32 622.18,852.78 683.04,1299.94zm173.29 312.64c83.11,-445.72 -484.43,-1384.85 -697.55,-1636.98 -193.21,-228.57 -373.36,-421.75 -636.86,-566.81 -243,-133.78 -654.25,-236.84 -879.06,20.71 -168.26,192.77 -188.97,725.88 -144.87,972.27 62.51,349.25 248.25,562.4 540.53,662.21 310.03,105.87 755.5,44.49 1079.76,119.95 422.9,98.43 582.49,431.65 738.05,428.65z"/>
  <path fil="#111111" d="M15499.41 5863.62c67.46,-338.09 443.54,-1020.76 618.92,-1227.88 800.28,-945.13 1378.79,-665.67 1246.19,352.81 -101.1,776.56 -847.47,559.93 -1228.82,608.68 -361.56,46.23 -423,230.06 -636.29,266.39zm-152.11 315.88c54.68,-10.98 431.32,-317.6 681.9,-393.47 337.65,-102.23 728.29,4.59 1007.07,-99.4 605.18,-225.74 530.9,-1296.09 302.07,-1601.59 -420.42,-561.3 -1200.82,286.96 -1361.48,510.15 -261.9,363.81 -647.63,1031.53 -629.56,1584.31z"/>
  <path fil="#111111" d="M2661.12 4267.09c-84.94,-50.19 -196.77,-280.09 -422.07,-444.17 -180.49,-131.46 -359.28,-231.26 -567.98,-364.82 -202.27,-129.46 -365.73,-258.69 -481.31,-455.93 -125.6,-214.35 -157.21,-512.86 6.61,-697.99 380.65,-430.19 808.62,352.54 968.02,623.74 82.93,141.07 258.39,463.74 263.67,654.67 9.82,354.75 274.7,409.65 233.06,684.5zm184.3 545.26c192.95,-506.56 -956.93,-3432.64 -1704.19,-2666.48 -219.23,224.78 -226.16,650.56 -81.32,919.47 335.07,622.13 1089.76,601.78 1553.16,1389.12 63.67,108.18 102.98,315.37 232.35,357.89z"/>
  <path fil="#111111" d="M15880.52 3349.54c27.41,-68.1 34.61,-86.04 72.48,-151.48 6.6,-11.4 28,-47.85 38.38,-61.4 31.55,-41.21 21.2,-23.22 55.92,-52.68 55.94,-165.97 332.96,-657.53 616.38,-620.87 333.03,43.08 307.77,576.92 161.03,840.74 -156.44,281.26 -375.11,374.51 -689.94,547.54 -391.99,215.43 -450.62,480.97 -632.86,599.82 -0.72,-250.32 190.77,-320.92 229.2,-537.18 27.29,-153.55 -9.86,-169.79 49.65,-312.15 43.13,-103.17 82.8,-155.8 99.76,-252.34zm-513.2 1690.8c212.54,-273.6 102.09,-624 1050.84,-1176.17 241.48,-140.55 459.14,-286.64 571.38,-558.99 113.86,-276.27 97.99,-656.81 -94.65,-880.57 -671.65,-780.17 -1825.12,2245.43 -1527.57,2615.73z"/>
  <path fil="#111111" d="M1801.17 15399.06c-230.95,-76.19 -153.42,-334.27 -306,-508 -144.41,-164.42 -238.7,-199.31 -356.66,-442.55 -118.94,-245.27 -381.13,-1040.96 -150.79,-1296.78 373.69,-415 662.93,427.34 677.38,789.54 10.44,261.52 0.85,537.16 29.88,796.6 23.93,213.85 97.74,462.22 106.19,661.19zm228 331.91c-15.23,-184.71 -140.84,-553.07 -178.59,-801 -102.3,-671.77 65.4,-1247.04 -285.61,-1776.02 -410.67,-618.9 -1262.58,-78.13 -454.93,1458.48 231.84,441.1 540.65,970.75 919.13,1118.54z"/>
  <path fil="#111111" d="M2261.15 6054.71l136.83 68.55c-70.02,85.5 -12.49,53.59 -146.96,83.4 -306.28,54.38 -639.42,633.1 -847.69,846.02 -95.83,97.97 -202.05,166.9 -394.45,125.94 -317.31,-140.85 -781.6,-1667.62 760.95,-1307.78 -2.93,5.99 -36.65,17.59 -66.93,127.9 174.99,84.2 156.46,115.91 344.42,-24.11l213.83 80.08zm356.49 168.79c-95.01,-468.47 -2397.03,-1173.95 -2011.98,505.58 151.91,662.61 607.21,822.95 982.06,340.66 388.15,-499.42 446.74,-662.6 928.38,-799.71l101.54 -46.53z"/>
  <path fil="#111111" d="M16373.51 6046.97c1355.59,-153.47 847.95,1226.88 630,1335.49 -312.88,60.25 -475.36,-301 -631.86,-527.29 -387.63,-560.44 -432.45,-389.03 -578.47,-564.84 236.75,-226.91 315.6,74.49 613.39,-100.24 -19.53,-54.81 45.2,-54.81 -28.3,-45l-70.37 -62.8 65.61 -35.32zm-814.01 343.59c185.87,153.51 326.47,105.62 533.67,343.03 352.43,403.79 505.01,943.02 894.52,813.48 492.14,-163.68 627.23,-1595.04 -183.08,-1668.68 -266.32,-24.2 -523.58,33.49 -755.51,124.44 -119.25,46.76 -199.77,90.75 -291.62,143.78 -118.64,68.48 -188.27,75.68 -197.98,243.95z"/>
  <path fil="#111111" d="M207.48 14424.58c441.33,-33.09 606.68,1063.49 1345.29,1412.32l126.44 75.98c-336.45,486.29 -1242.41,343.49 -1391.57,-380.14 -37.96,-184.13 -52.61,-179.32 -123.95,-343.28 -83.1,-191.01 -65.04,-600.8 43.79,-764.88zm1640.16 1454.89c-119.62,-221.11 -254.5,-104.39 -568.66,-403.95 -219.97,-209.73 -1175.52,-2071.63 -1269.33,-766.91 -57.76,803.23 484.16,1850.65 1271.36,1605.19 214.35,-66.84 533.48,-236.67 566.63,-434.33z"/>
  <path fil="#111111" d="M16247.85 16022.09c362.7,-184.12 483.88,-284.05 728.2,-668.64 98.78,-155.5 170.15,-288.1 272.35,-431.31 110.72,-155.17 180.45,-310.2 382.93,-303.19 92.33,262.78 108.43,492.31 9.25,758.01l-233.64 635.12c-105.06,162.33 -309.22,326.57 -604.68,318.73 -222.77,-5.91 -488.96,-136.28 -554.41,-308.72zm-168.07 -75.8c11.81,341.51 729.72,771.45 1184.07,393.19 792.59,-659.86 778.25,-2937.96 -228.26,-1329.9 -129.97,207.66 -234.75,392.16 -379.24,555.59 -280.84,317.65 -366.64,259.93 -576.57,381.12z"/>
  <path fil="#111111" d="M4042.52 13799.86c324.93,-200.1 479.92,318.49 216.6,415.85 -278.24,102.87 -475.27,-256.55 -216.6,-415.85zm-10.28 -211.21c-429.41,169.04 -165.09,945.9 282.37,752.64 430.9,-186.1 188.39,-937.95 -282.37,-752.64z"/>
  <path fil="#111111" d="M15701.23 7925.36c-212.68,-210.62 -122.62,-537.15 203.14,-497.12 44.43,226.79 19.07,441.38 -203.14,497.12zm-16.19 -625.03c-176.51,100.56 -249.56,229.74 -224.89,495.1 17.39,186.97 168.6,375.48 368.11,257.69 330.9,-195.34 297.36,-1003.82 -143.22,-752.79z"/>
  <path fil="#111111" d="M15754.91 19368.72c-101.61,-390.39 460.53,-760.13 180.06,3.82 -107.41,53.68 -66.21,52.48 -180.06,-3.82zm305.39 -570.81c-413.57,-73.14 -587.83,612.05 -367.25,730.63 340.97,183.28 560.98,-455.27 367.25,-730.63z"/>
  <path fil="#111111" d="M11225.71 8194.94c-67.43,-150.58 -51.3,-250.53 155.05,-215.94 67.83,146.78 23.14,238.83 -155.05,215.94zm331.27 -271.27c-104.54,-98.8 -170.89,-177.48 -350.75,-81.68 -129.15,68.78 -211.28,206.16 -158.07,367.63 94.02,285.28 584.37,244.7 508.82,-285.95z"/>
  <path fil="#111111" d="M7028.65 8485.34c46.95,170.66 16.86,266.92 -201.08,199.89 -85.71,-179.79 20.37,-248.01 201.08,-199.89zm168.28 197.96l1.73 -207.82c-177.52,-161.46 -105.87,-183.64 -425.95,-156.02 -53.25,86.41 -102.23,103.25 -116.91,214.76 -16.53,125.54 28.05,214.78 90.83,268.5 208.19,178.18 363.63,-43.89 450.3,-119.42z"/>
  <path fil="#111111" d="M5182.84 17462.99c75.48,-127.65 -59.44,-641.95 -83.73,-788.13 -31.86,-191.74 -91.86,-647.99 -150.01,-794.87 -141.8,101.21 91.03,1134.16 144.78,1393.81 27.15,131.16 10.84,113.11 88.96,189.19z"/>
  <path fil="#111111" d="M17604.56 12653.41c-106.71,-136.93 -64.75,-375.37 82.53,-436.43 24.49,162.57 6.43,336.62 -82.53,436.43zm0 151.3c237.3,-99.35 262.7,-588.41 100.17,-755.22 -163.36,12.19 -226.06,167.07 -257.05,329.11 -42.43,221.89 -10.4,369.33 156.88,426.11z"/>
  <path fil="#111111" d="M14332.73 13540.65c94.27,-48.59 32.86,-43.48 143.5,-10.82 22.5,139.61 -11.21,178.68 -144.06,183.53 -51.3,-98.03 -52.56,-72.23 0.56,-172.71zm-57.62 347.07c202.16,-0.95 326.09,-68.3 344.64,-253.44 20.5,-204.53 -59.84,-295.46 -269.48,-298.07 -230.62,185.39 -250.97,317.31 -75.16,551.51z"/>
  <path fil="#111111" d="M13962.66 21399.6c283.92,-0.89 196.67,-190.86 183.33,-460.27 -9.54,-192.81 5.21,-403.8 -80.95,-574.91 -35.35,31.04 -39.94,-83.98 -65.48,192.31 -28.56,309.02 -57.37,512.9 -36.9,842.87z"/>
  <path fil="#111111" d="M12831.02 17382.41c153.97,-48.1 151.32,-280.73 200.41,-600.26l60.07 -557.5c5.69,-95.9 17.55,-76.59 -28.22,-153.76 -129.37,142.45 -229.94,1149.18 -232.26,1311.52z"/>
  <path fil="#111111" d="M4168.3 15378.29c-60.19,-63.66 -996.27,-442.35 -1143.43,-458.19 81.28,168.99 291.4,248.51 496.54,319.23 157.51,54.3 502.17,210.01 646.89,138.96z"/>
  <path fil="#111111" d="M1968.72 18847.23c68.25,27.38 77.25,6.7 106.02,81.81 10.65,27.8 11.84,59.05 7.37,88.12 -22.53,146.42 7.34,7.77 -38.09,79.31 -116.55,-74.49 -88.77,-106.88 -75.3,-249.24zm173.86 370.32c98.37,-239.53 112.14,-314.74 -57.82,-494.12l-169.02 1.21c-148.37,207.65 -131.18,519.7 226.84,492.91z"/>
  <path fil="#111111" d="M8989.99 8593.92l92.65 12.54c-5.68,138.26 -5.17,101.61 -109.45,123.35l16.8 -135.89zm246.34 126.46l-1.03 -146.43c-74.83,-64.07 -87.19,-133.08 -212.31,-133.51 -98.39,-0.35 -193.53,72.39 -202.66,189.78 -10.15,130.69 71.66,208.99 174.76,220.44 152.21,16.92 168.43,-65.04 241.24,-130.28z"/>
  <path fil="#111111" d="M14629.76 15845.47c115.8,-30.94 112.64,-46.74 170.74,-162.42 127.25,-253.34 295.34,-518.01 298.5,-778.4 -121.77,64.12 -217.11,302.37 -278.25,428.69 -65.16,134.63 -163.87,337.44 -190.99,512.13z"/>
  <path fil="#111111" d="M11774.17 17249.35c129.3,89.98 704.47,88.19 905.19,50.78 -40.54,-229.4 -773.41,-157.84 -905.19,-50.78z"/>
  <path fil="#111111" d="M5447.4 17383c136.72,87.4 862.81,44.9 940.48,-100.24 -146.64,-69.79 -707.15,-11.02 -844.69,32.17 -151.35,47.54 -59.66,20.8 -95.79,68.07z"/>
  <path fil="#111111" d="M5103.39 14924.68c193.76,41.17 780.37,5.36 934.7,-80.97 -118.54,-133.35 -323.13,-71.71 -520.72,-53.6 -159.85,14.64 -399.25,-7.13 -413.98,134.57z"/>
  <path fil="#111111" d="M15014.12 17669.43c343.34,42.96 635.34,-243.25 703.57,-473.79 -161.31,50.37 -265.08,131.85 -392.73,211.54 -117.93,73.63 -269.79,142.05 -310.84,262.25z"/>
  <path fil="#111111" d="M13118.6 8174.98l91.77 -36.07 -22.92 99.14c280.23,-156.54 366.17,170.89 24.26,161.33 -25.76,109.68 64.98,63.93 181.33,58.38l-8.81 77.91c99.57,-39.66 163.43,-73.16 181.52,-211.28 42.11,-321.38 -316.79,-418.84 -447.15,-149.41z"/>
  <path fil="#111111" d="M2958.09 17761.41c-28.22,-91.39 5.71,-45.44 -55.09,-102.68 -22.98,-21.61 -61.89,-35.85 -84.74,-49.44 -167.29,-99.48 -444.22,-297.12 -575.21,-328.15 18.08,248.51 475.1,482.69 715.04,480.27z"/>
  <path fil="#111111" d="M7337.84 13890.78c3.64,140.33 15.16,114.14 -117.93,122.38 10.8,-106.13 19.21,-122.39 117.93,-122.38zm-246.38 120.44c171.63,228.38 418.2,143.6 387.36,-97.06 -26.24,-204.71 -388.2,-254.79 -387.36,97.06z"/>
  <path fil="#111111" d="M2625.37 16065.09c-10.55,-128.41 -207.13,-428.58 -287.47,-578.12 -60.88,-113.31 -41.67,-134.1 -168.84,-179.61 -5.42,182.61 76.6,325.79 159.19,453.29 69.59,107.42 163.34,309.94 297.12,304.44z"/>
  <path fil="#111111" d="M16669.59 17476.15c76.51,76.62 56.91,-125.35 51.29,105.72 -1.64,67.34 -40.71,76.65 -51.29,89.51 -75.39,-84.22 -59.41,-90.96 0,-195.23zm-114.31 290.28c304.37,81.8 322.91,-212.96 241.4,-409.05 -293.71,-56.39 -336.14,173.93 -241.4,409.05z"/>
  <path fil="#111111" d="M14046.51 17634.38c294.4,-41.93 694.27,-348.81 793.74,-559.88 -107.14,16.22 -599.29,347.53 -723.76,458.95 -65.72,58.82 -23.55,6.09 -69.98,100.93z"/>
  <path fil="#111111" d="M12878.25 18103.17c335.73,9.23 760.74,-90.82 886.55,-316 -146.15,-1.11 -769.02,204.39 -886.55,316z"/>
  <path fil="#111111" d="M975.48 17167.01c131.43,179.44 12.36,181.66 0,191.56 -16.48,-19.78 -54.08,51.34 -51.08,-108.74 1.97,-104.51 12.8,-37.31 51.08,-82.82zm-144.46 -63.83c-29.43,171.75 -9.47,258.61 77.68,372.4l140.98 9.4c140.53,-166.81 89.11,-334.32 -16.52,-453.63 -112.37,-1.6 -132.62,1.33 -202.14,71.83z"/>
  <path fil="#111111" d="M13130.06 15811.69c82.62,-65.69 66.94,-69.07 81.84,-203.55 10.97,-98.94 23.3,-198.76 32.19,-297.59 14.85,-165.16 77.99,-436.37 -13.84,-566.34 -81.57,49.07 -63.28,96.74 -76.9,211.26l-23.29 856.22z"/>
  <path fil="#111111" d="M2753.92 15849.59c-26.76,-164.34 -175.31,-475.99 -250.16,-664.04 -91.08,-228.82 -48.03,-143.08 -121.56,-173.17 -31.36,253.75 171.84,743.95 371.72,837.21z"/>
  <path fil="#111111" d="M17571.17 10298.47c187.71,-92.34 139.05,-410.26 86.28,-487.11 -34.57,-50.36 -14.44,-18 -52.89,-48.06 -161.95,156.11 -223.69,444.99 -33.39,535.17z"/>
  <path fil="#111111" d="M15349.21 16000.47c119.19,-13.74 232.4,-203.96 297.64,-308.7 43.87,-70.41 67.68,-120.05 98.46,-202.27 125.29,-334.7 36.71,-228.4 22.71,-252.5 -76.07,89.09 -405.24,646.05 -418.81,763.47z"/>
  <path fil="#111111" d="M3072.55 17112.91c205.73,256.56 400.26,427.54 753.29,511.47 -65.72,-158.17 -605.63,-491.92 -753.29,-511.47z"/>
  <path fil="#111111" d="M15106.8 17909.72c48.64,165.65 199.63,139.78 359.26,106.25 163.42,-34.34 239.58,-45.12 282.38,-212.45l-641.64 106.2z"/>
  <path fil="#111111" d="M508 9540.67c33.32,14.45 74.45,-10.44 80.41,92.3 10.3,177.59 -18.52,85.52 -80.41,119.28 -48.01,-76.76 -53.77,102.91 -41.19,-119.56 4.73,-83.64 21.17,-61.94 41.19,-92.02zm33.39 351.12c145.03,-104.89 147.11,-311.88 45.75,-498.74 -348.22,6.69 -240.04,456.46 -45.75,498.74z"/>
  <path fil="#111111" d="M4915.71 15681.73c40.64,-94.88 -14.09,-807.85 -100.17,-866.95 -79.2,109.26 -44.12,752.05 100.17,866.95z"/>
  <path fil="#111111" d="M15236.84 15777.91c189.62,-94.5 371.6,-528.29 365.54,-836.61 -68.77,53.44 -73.95,65.38 -124.19,179.65l-241.35 656.96z"/>
  <path fil="#111111" d="M2855.71 18063.15c-42.16,-52.33 32.87,-28.33 -107.92,-84.49 -26.15,-10.43 -128.09,-32.64 -159.84,-38.8 -128.67,-24.96 -250.26,-30.52 -388,-26.1 76.49,226.87 461.14,213.92 655.76,149.39z"/>
  <path fil="#111111" d="M2093.44 25184.7c86.93,43.8 649.32,200.13 700.34,-195.91 -9.74,4.59 -21.54,10.52 -28.86,14.5l-76.28 43.5c-233.03,124.93 -271.84,2.73 -595.2,137.91z"/>
  <path fil="#111111" d="M374.14 12598.21c-31.3,230.09 -0.7,301.63 133.86,412.86l124.43 -105.15 -9.94 -220.14c-91.55,33.02 -29.52,-17.52 -66.95,57.89 -4.14,8.36 -14.48,42.72 -18.55,51.27 -3.48,7.34 -10.44,19.17 -13.44,25.26 -3.06,6.18 -9.75,16.79 -15.55,24.55 -109.47,-83.22 21.95,-146.14 24.28,-337.65 -88.9,13.58 -104.06,37.63 -158.14,91.11z"/>
  <path fil="#111111" d="M3574.6 16342.97c-4.35,-134.6 -124.7,-281.79 -183.44,-372.68 -71.21,-110.19 -138.18,-290.5 -269.49,-313.37 30.91,207.07 323.2,634.15 452.93,686.05z"/>
  <path fil="#111111" d="M15165.14 25200.72c-143.98,-23.08 -175.1,-85.32 -286.94,-118.78 -35.66,292.44 403.63,265.73 655.63,222.86 -78.2,-131.47 -204.31,-77.73 -368.69,-104.08z"/>
  <path fil="#111111" d="M3453.38 16881.82l-305.38 -76.75c-125.31,-14.45 -236.15,-29.08 -370.54,-26.57 51.76,105.66 166.04,122.84 292.63,149.36 161.99,33.92 263.39,46.92 383.29,-46.04z"/>
  <path fil="#111111" d="M12527.06 14812.84l159.4 -20.13 -216.59 -46.12c-225.11,-15.84 -362.55,-27.49 -576.35,21.06 36.14,38.07 -77.77,67.67 266.48,78.61 138.86,4.41 232.6,-18.05 367.06,-33.42z"/>
  <path fil="#111111" d="M4115.49 17786.29c29.36,28.32 29.22,91.48 217.09,183.28 132.13,64.57 210.51,66.32 370.56,62.96 -41.65,-76.85 31.04,-49.51 -119.29,-116.63l-468.36 -129.61z"/>
  <path fil="#111111" d="M1643.61 4418.98c-27.59,-169.5 -172.54,-295.18 -369.21,-303.79 46.91,157.38 173.24,289.66 369.21,303.79z"/>
  <path fil="#111111" d="M2147.13 4990.8c-5.37,-226.07 -122.67,-354.93 -287.56,-420.21 24.82,108.17 47.77,168.03 107.45,258.24 64.32,97.22 79.75,129.16 180.11,161.97z"/>
  <path fil="#111111" d="M16435.99 4651.68c184.55,-35.58 287.26,-127.14 314.2,-316.88 -158.43,44.51 -299.45,135.13 -314.2,316.88z"/>
  <path fil="#111111" d="M15976.1 5174.67c162.86,-60.86 258.39,-230.9 243.26,-402.39 -125.91,64.54 -251.03,230.94 -243.26,402.39z"/>
  <path fil="#111111" d="M13584.69 15378.29c143.33,74.46 341.28,19.23 439.31,-100.37 -113.01,-20.43 -144.33,-21.54 -259.89,-2.86 -114.39,18.49 -141.93,19.62 -179.42,103.23z"/>
  <path fil="#111111" d="M16035.14 21789.81c193.66,-11.05 199.42,-218.91 100.18,-337.58 -69.28,64.31 -154.78,215.27 -100.18,337.58z"/>
  <path fil="#111111" d="M1752.17 2616.81c-11.5,-173.28 -92.47,-262.96 -239.91,-298.65 23.5,170.85 108.85,241.88 239.91,298.65z"/>
  <path fil="#111111" d="M16656.79 6256.92c0.18,0.29 18.95,137.76 211.47,84.13 77.62,-21.63 36.64,-16.94 74.78,-50.72 -80.01,-112.28 -175.62,-127.87 -286.25,-33.41z"/>
  <path fil="#111111" d="M1556.83 21548.81c32.81,131.02 5.77,73.95 86.49,113.38 85.54,-107.23 49.72,-70.88 36.08,-225.31 -34.09,-27.14 -64.86,-41.63 -102.86,-66.91 -13.57,24.38 -24.61,25.11 -34.07,86.5 -5.5,35.59 6.89,58.9 14.36,92.34z"/>
  <path fil="#111111" d="M1081.54 6089.86c56.21,22.84 89.98,31.49 160.7,27.96 116.09,-5.81 102.28,-14.02 133.36,-94.79 -111.31,-76.47 -281.58,-56.92 -294.06,66.83z"/>
  <path fil="#111111" d="M841.92 6560.41c29.07,-26.19 20.98,-1.73 47.86,-52.73 50.62,-96.02 54.79,-171.19 39.38,-270.2 -154.38,20.53 -159.25,216.73 -87.24,322.93z"/>
  <path fil="#111111" d="M16695.04 14478.09c68.91,-38.34 153.47,-118.16 146.36,-237.1 -11.82,-197.61 16.07,-30.7 -51.77,-108.19 -74.03,124.23 -104.85,183.2 -94.59,345.29z"/>
  <path fil="#111111" d="M753.52 15891.9c-47.63,-131.43 -120.76,-196.28 -283.1,-216.93 40.46,149.9 106.33,197.72 283.1,216.93z"/>
  <path fil="#111111" d="M2110.8 22531.26c63.98,-109.77 46.23,-215.81 -66.78,-275.98 -40.32,54.49 -68.93,41.7 -34.23,164.85 24.46,86.8 43.86,80.39 101.01,111.13z"/>
  <path fil="#111111" d="M17094.86 16056.24c174.51,-13.36 223.91,-39.65 256.23,-223.28 -142.3,40.38 -202.84,81.04 -256.23,223.28z"/>
  <path fil="#111111" d="M1251.44 14318.54c-13.49,-157.34 -36.14,-266.86 -147.09,-349.12 -16.54,174.79 -0.04,276.53 147.09,349.12z"/>
  <path fil="#111111" d="M15578.69 22624.21c137.31,-26.97 147.84,-145.97 115.63,-290.56 -119.15,49.49 -123.95,131.86 -115.63,290.56z"/>
  <path fil="#111111" d="M2449.57 5419.42c-1.95,-176.24 -27.41,-241.55 -181.36,-280.69 23.3,148.12 56.11,233.96 181.36,280.69z"/>
  <path fil="#111111" d="M16706.07 16146.76c52.27,35.94 52.69,54.87 161.88,35.05 104.62,-18.99 85.24,-44.86 105.03,-68.46 -96.57,-70.83 -205.89,-106.75 -266.91,33.41z"/>
  <path fil="#111111" d="M892.45 15979.71c56.97,45.22 -101.63,47.32 116.31,57.31 137.28,6.29 131.35,-47.83 143.75,-57.31 -120.79,-139.39 -248.82,-43.73 -260.06,0z"/>
  <path fil="#111111" d="M808.24 3979.63c38.28,77.22 86.28,122.79 193.44,97.6 116.84,-27.44 52.8,-28.83 79.72,-58.89 -63.37,-53.18 -165.94,-97 -273.16,-38.71z"/>
  <path fil="#111111" d="M15756.4 22212.07c60.36,-25.61 98.71,-3.79 120.38,-122.95 29.99,-164.89 -41.42,-132.33 -41.98,-133.07 -103.42,93.39 -84.98,85.14 -78.4,256.02z"/>
  <path fil="#111111" d="M1080.37 13641.92c21.2,-52.06 36.2,-83.55 40.6,-168.05 6.69,-128.11 -13.59,-128.88 -45.3,-172.62 -94.07,115.41 -62.67,255.18 4.7,340.67z"/>
  <path fil="#111111" d="M1974.03 22024.9c10.38,-101.92 -41.22,-138.7 -96.96,-180.93 -94.67,119.12 -26.22,198.95 66.78,257.06 36.46,-67.8 15.71,65.8 30.18,-76.13z"/>
  <path fil="#111111" d="M15701.96 5591.04c136.72,-57.6 146.23,-108.27 147.39,-281.71 -126.33,68.86 -143.49,115.35 -147.39,281.71z"/>
  <path fil="#111111" d="M15701.23 25103c3.31,-7 171.03,-49.75 66.79,-228.88 -117.32,44.14 -123.57,126.42 -66.79,228.88z"/>
  <path fil="#111111" d="M16515.2 22330.39c-4.24,-147.88 -13.07,-34.7 -45.96,-75.77 -59.41,90.74 -76.29,79.99 0,192.95 37.11,-54.09 51.69,82.06 45.96,-117.18z"/>
  <path fil="#111111" d="M1909.19 24779.1l-44.16 -16.53c-18.51,83.8 -31.05,44.92 -16.94,138.68 16.44,109.28 43.63,79.38 66.32,95.91l-5.22 -218.06z"/>
  <path fil="#111111" d="M17133.31 4314.05c-50.96,-109.73 -70.02,-90.17 -166.55,-28.43 41.25,29.79 -17.26,22.31 70.36,32.88 8.96,1.08 83.5,-3.76 96.19,-4.45z"/>
  <path fill="#010101" d="M16172.14 15504.11c3.64,-186.06 74.56,-456.71 99.29,-661.26 29,-239.82 36.15,-500.97 56.31,-735.76 21.82,-254.08 85.08,-739.39 318.01,-854.99 534.94,-265.49 521.14,938.49 -173.11,1763.02 -152.5,181.1 -107.83,411.34 -300.5,488.99zm-3675.93 -2431.97c45.42,43.27 61.4,120.84 7.35,175.56 -89.74,90.84 -306.21,-10.35 -159.24,-158.73 24.4,-24.64 61.31,-103.15 151.89,-16.83zm-76.5 401.69c-59.13,126.94 -236.66,262.93 -436.77,175.22 -184.56,-80.89 -157.1,-270.18 -149.5,-510.24 6.68,-211.29 13.28,-422.36 20.95,-633.92 6.56,-181.27 -26.52,-492.73 73.57,-592.54 80.08,66.03 90.84,174.87 169.23,287.83 86.15,124.16 115.98,170.8 238.87,265.71 273,210.85 452.07,88.5 370.77,550.89 -147.39,-68.46 -129.71,-122.94 -277.59,-125.09 -123.55,-1.79 -199.46,52.88 -244.52,142.48 -141.73,281.84 90.81,336.27 234.99,439.66zm-11310.65 -3298.88c112.56,49.03 111.22,138.57 107.55,259.45 -82.45,-26.25 -94.26,-5.63 -122.7,-119.86 -23.09,-92.78 -13.09,-83.26 15.15,-139.59zm300.52 183.49c-100.5,-37.07 -150.43,-100.91 -169.18,-229.11 -41.1,-280.86 136.62,-261.23 236.65,-259.98 93.3,149.01 160.72,420.71 -67.47,489.09zm11122.52 966.03c-73.26,-4.62 -61.17,-3.45 -92.2,11.04l15.94 71.12c-114.73,-275.5 48.38,-155.34 -137.72,-271.61 26.51,-140.7 33.23,-203.8 -38.59,-365.52l9.58 -73.55c9.77,-239.23 66.31,-342.87 86.37,-528.11 31.51,-291.07 -106.66,-265.87 -128.8,-499.55 -46.24,-488.03 460.3,-1529.13 870.45,-294.34 255.86,770.26 109.23,2328.18 -120.63,2805.07 -186.14,-104.5 -340.79,-695.09 -464.4,-854.55zm-10800.94 -895.87c-54.49,88.31 -37.86,98.07 -171.63,87.68 -3.53,-102.7 26.06,-181.9 91.15,-259.8 -27.53,-434.56 13.75,-615.42 -465.5,-466.44 -7.16,-287.74 167.12,-848.97 285.24,-1130.45 24.56,-58.52 44.36,-113.27 69.83,-163.85 55.83,-110.88 22.1,-82.71 136.46,-103.57 142.5,148.9 99.93,811.41 100.21,1005.44 0.78,536.48 -24.83,593.29 -45.76,1030.99zm14508.46 503.06c-15.83,-249.21 300.33,-1343.42 401.87,-1698.05 88.63,-309.52 48.9,-420.99 215.82,-425.6 37.85,601.42 -189.58,1402.53 -471.66,1944.67 -115.04,221.11 -71.03,149.89 -146.03,178.98zm-12385.34 1238.69c69.83,-179.18 39.39,-96.76 116.34,-129.29l11.84 138.35c60.3,407.76 345.25,906.43 766.17,963.07 707.45,95.21 701.5,-473.1 744.48,-1039.84 37.75,-497.91 100.14,-1097.95 168.81,-1578.71 66.15,-463.1 189.5,-1105.63 637.61,-1166.46 -57.58,346.95 -34.03,881.98 -82.35,1272.74 -73.65,595.65 -323.64,1923.77 -59.85,2434.67 153.15,296.63 512.23,542.45 880,326.23 437.2,-257.04 605.26,-1309.96 829.85,-1876.25 167.56,-422.46 692.58,-1464.7 1075.61,-1636.58 -21.24,118.32 -92.25,239.88 -141.23,368.92 -282.11,743.12 -799.79,2496.48 -600.01,3180.13 175.68,601.2 684.79,955.22 1312.75,538.29 199.45,-132.43 371.71,-370.62 522.4,-579.6 101.76,-141.12 353.69,-555.71 504.36,-598.18 24.64,133.44 46.37,255.87 95.58,373.97l68.15 137.7c3.39,6.73 7.22,15.69 10.6,22.31 28.28,55.24 54.64,102.26 83.97,145.9 581.48,865.08 1840.14,922.24 2521.89,-3.04 159.48,-216.45 267.07,-404.69 463.55,-505.8 268.43,-138.11 377.41,-98.98 650.72,-317.56 309.53,-247.56 276.57,-343.6 430.91,-535.37 82.59,119.24 292.92,1418.93 897.78,1061.68 561.72,-331.79 54.09,-1202.79 437.9,-1611.11 177.24,196.66 134.1,943 503.69,1516.37 -140.4,115.55 -284.45,129.62 -414.83,462.59 -88.78,226.72 -92.78,494.45 -101.36,774.8 -18.24,596.33 -144.78,993.43 -230.86,1518.31 230.45,-104.72 673.92,-714.27 801.23,-925.27 713.97,-1183.3 72.22,-1688.89 269.65,-2037.3 287.52,-507.38 613.7,-1444.32 574.11,-2031.02l-658.69 1775.23c-120.29,-117.45 -191.25,-840.51 -219.23,-1002.6 -95.84,-555.37 -46.64,-493.56 169.44,-913.37 279.39,-542.82 494.78,-1212.73 482.01,-1965.99 -3.62,-214.03 -35.08,-355.2 -168.68,-438.27 -141.95,-88.27 -326.92,-53.83 -449.6,26.9 -331.38,218.08 -495.68,1255.08 -622.72,1781.29 -41.08,170.18 -75.71,306.07 -118.75,487.32l-153.45 492.16c-26.46,-974.32 146.8,-1282.81 248.25,-2034.5 117.15,-868.04 -735.36,-1029.62 -989.78,-157.03 -192.75,661.06 -173.69,1420.9 -241.39,2061.1 -39.18,370.5 -84.42,615.29 -232.92,901.41 -106.29,204.77 -393.79,579.31 -580.67,556.18 -68.74,89.47 -33.12,91.98 -182.52,90.93 -6.49,-37.09 -30.12,-17.07 -6.7,-104.92 45.79,-171.69 8.82,-32.69 66.26,-91.57 27.78,-385.98 424,-1131.61 323.58,-2133.74 -48.12,-480.22 -231.99,-979.12 -553.52,-1319.47 -110.46,-116.91 -207.99,-178.47 -330.43,-310.39l8.81 -77.91c-116.35,5.55 -207.09,51.3 -181.33,-58.38l-24.26 -161.33 22.92 -99.14 -91.77 36.07c-26.29,12.8 -9.52,-69.12 -45.25,61.74 -16.67,61.08 -9.7,95.93 -9.79,158.13 -1425.75,-113.93 -1405.61,966 -1900.1,1539.26 -189.11,219.24 -284.71,485.82 -370.07,799.8 -84.06,309.17 -155.43,610.09 -246.64,883.86 -11.45,34.37 -20.9,75.94 -31.12,105.98l-340.06 699.4c-179.66,311.8 -771.29,1129.07 -1058.69,1247.17l621.51 -2015.69c180.16,-565.33 624.07,-1620.22 221.66,-2127.12 -439.36,-553.42 -1248.75,-277.04 -1745.24,396.49 -561.07,761.12 -562.96,948.13 -884.58,1617.8 -3.62,7.54 -6.49,16.1 -10.74,23.49l-79.27 91.78c41.67,-629.09 223.47,-1258.65 100.78,-1919.97 -92.43,-498.2 -544.1,-1088.8 -1189,-841.13 -480.14,184.39 -726.41,635.96 -843.31,1228.24 -63.47,321.59 -186.26,1634.03 -288.55,1815.98l-177.07 -2308.84c-169.54,-918.14 -1010.99,-994.12 -1140.27,-69.04 -50.5,361.34 -31.65,810.97 -2.87,1175.6 36.08,456.93 114.75,698.8 -68.15,1083.99 -214.73,452.23 -684.19,1128.63 -1020.1,1485.63 -90.48,-79.33 -103.7,-250.67 -117.22,-403.01 -40.83,-459.93 9.48,-1085.42 184,-1491.97 174.68,5.23 440.68,55.8 391.45,-236.8 -23.31,-138.52 -206.69,-190.34 -288.71,-446.53 -113.14,-353.4 67.67,-944.84 34.19,-1359.35 -54.91,-679.85 -623.76,-1749.53 -1401.39,-1238.23 -753.04,495.13 -429.89,1316.83 -762.35,2144.62 -164.78,410.27 -7.29,1422.74 22.35,2028.25 13.27,271.06 2.26,482.18 274.41,468.36 132.86,-214.82 99.09,-1173.27 96.88,-1522.51 142.85,-44.16 404.19,-37.26 531.25,18.44 167.23,595.87 -215.69,2075.71 747.49,2424.67 843.35,305.55 1523.44,-1444.47 1530.25,-1523.12zm8774.91 -1213.87c-255.14,-209.3 -45.29,-568.62 293.91,-514.43 172.18,259.68 20.2,534.95 -293.91,514.43zm-229 -295.51l-25.88 125.16c-66.78,-1.57 -24.4,9.41 -94.78,-16.63 71.82,161.72 65.1,224.82 38.59,365.52 186.1,116.27 22.99,-3.89 137.72,271.61l-15.94 -71.12c31.03,-14.49 18.94,-15.66 92.2,-11.04l-54.43 -224.18c-43.8,-49.58 -32.39,77.51 -47.77,-101.56 142.25,31.88 76.37,28.36 112.57,74.56 395.85,122.33 689.96,-237.65 574.08,-596.91 -106.15,-329.12 -643.72,-238.19 -716.36,184.59z"/>
  <path fill="#010101" d="M13696.35 23134.74c-469.76,22.1 -451.13,-371.44 -386.18,-767.64l440.29 -2639.06c34.27,-226.98 27.05,-315.67 251.23,-367.31 534.31,-123.08 471.19,281.94 531.92,695.27 54.77,372.74 99.02,702.66 160.43,1088.34 52.77,331.38 108.43,705.61 162.53,1057.76 38.44,250.26 31.29,377.61 -101.28,515.44 -53.78,55.92 -257.86,274.15 -322.95,319.72 -142.76,-161.55 -73.79,-223.68 -112.85,-467.83 -23.07,-144.2 -95.02,-323.51 -286.61,-310.82 -316.1,20.93 -307.8,592.92 -336.53,876.13zm-2781.94 -1944.61c156.99,2.13 283.67,24.64 351.51,-90.11 111.95,-189.39 -39.92,-227.45 161.17,-250.86 74.22,112.11 37.42,202.59 55.81,367.48l314.25 0.04c-59.33,215.01 -287.13,511.94 -437.81,772.88 -84.48,146.28 -146.89,237.64 -209.15,397.1 -127.83,327.39 22.1,341.55 -123.8,457.83 -78.77,-49.54 -65.61,27.89 -75.62,-146.16l26.42 -469.46c11.3,-222.4 26.41,-446.99 25.01,-669.42 -140.65,-68.14 -230.93,-30.06 -208.92,-273.9l121.13 -95.42zm-54.98 -512.91c-138.37,8.37 -259.95,-34.35 -391.73,20.17 -187.65,77.63 -449.58,554.54 205.82,611.66 22.55,240.31 33.29,613.96 -47.83,754.67 -148.75,22.07 -276.02,-20.99 -358.92,103.69 -72.58,109.17 -64.07,299.31 -8.39,423.75 155.76,79.83 343.84,43.76 531.39,34.45 49.73,242.68 93.21,714.79 7.55,938.54 -97.3,68.4 -115.6,64.87 -236.96,72.72 -103.15,6.68 -213.99,14.6 -306.37,20.58 -215.36,13.93 -455.34,19.68 -670.58,10.51 -13.34,-604.11 68.8,-1366.3 108.61,-1974.71 22.39,-342.22 42.32,-1772.92 150.42,-1950.26 21.88,-14.87 -27.34,-19.73 89.84,-46.36l1056.05 -34.64c53.32,334.05 80.51,823.9 -128.9,1015.23zm471.33 7.9c-9.15,-210.29 16.94,-419.36 26,-627.96 12.51,-288.24 -28.8,-365.12 271.73,-395.88 332.99,-34.08 912.89,-121.05 1229.36,-96.78 431.65,1151.76 -554.52,2069.27 -711.38,2679.9l827.21 -40.23c-68.94,325.61 100.6,786.41 -23.65,1076.31 -75,121.37 -1064.96,230.55 -1256.12,251.17l-331.64 30.62c-145.92,-13.39 -8.68,6.74 -76.16,-26.17 -122.44,-104.05 -76.26,-757.25 -49.83,-887.1 55.42,-272.32 171.03,-469.99 308.83,-706.37l728.75 -1269.91c-214.73,-50.57 -682.31,25.95 -943.1,12.4zm-1883.48 -873.4c-65.8,46.54 25.68,-50.42 -28.54,54.18 -40.99,79.07 3.48,35.07 -54.5,89.62 -171.82,861.05 -421.73,2980.77 -636.11,3678.89l-721.27 -94.07 -44.4 36.76c-6.77,162.39 160.67,415.84 286.47,494.53 180.46,112.87 509.16,112.58 722.58,72.23 133.05,-125.28 149.08,-403.16 182.92,-612.48 36.48,-225.63 80.97,-473.69 126.4,-713.63 32.69,-172.66 173.7,-1262.04 283.88,-1403.48 2.83,442.2 -40.31,875.27 -60.99,1314.59 -11,233.89 -23.43,442.92 -32.27,667.69 -10.24,260.55 -42.34,410.22 209.53,480.4 16.58,469.38 407.04,322.58 1111.15,255.62 404.06,-38.42 351.47,-115.2 392.46,-435.35 270.3,4.21 134.77,146.91 257.87,350.66 195.17,36.84 719.7,-66.77 942.21,-101.41 263.18,-40.97 775.84,-64.69 843.93,-215.26 44.6,-250.26 -87.35,-466.31 35.04,-628.02 96.16,103.11 269.28,564.06 656.85,551.03 42.08,-311.6 67.73,-808.88 244.72,-872.55 35.92,39.28 12.18,-13.03 64.72,86.04l269.2 659.59c206.4,-25.08 522.85,-492.39 565.26,-675.12 59.23,-255.15 -66.32,-872.36 -104.7,-1153.08 -54.64,-399.63 -232.1,-1910.03 -341.56,-2196.8 -117,-306.56 -449.75,-497.06 -770.28,-232.29 -372.57,307.78 -340.05,1329.44 -486.18,2050.25l-143.71 802.4c-55.92,319.8 -47.36,200.9 -93.8,249.67 -25.65,-128.44 -70.44,-275.49 -206.42,-327.28l-156.97 -51.25c251.94,-579.28 734.98,-1208.65 383.04,-2181.88 -176.19,-487.22 -216.07,-438.03 -980.96,-363.04 -548.37,53.76 -931.34,-13.57 -927.87,489.06 -162.08,-128.99 -62.34,-204.11 -126.58,-364.36 -68.52,-170.94 -529.6,-67.59 -783.34,-64.04 -788.45,11.02 -603.53,122.72 -638.42,412.43 -15.96,132.5 -26.06,115.08 -129.48,143.37 -50.15,-104.09 -23.21,-147.58 -64.99,-217.43 -20.75,-34.71 -24.01,-22.07 -44.89,-36.19z"/>
  <path fill="#010101" d="M3704.68 21951.6c-154.49,-62.75 -39.4,-248.08 -158.17,-458.28l-318 13.32c-97.24,-109.84 -276.19,-174.91 -174.36,-603.06 59.71,-251.04 178.67,-363.73 478.14,-293.99 280.81,65.4 215.43,284.64 203.09,582.84 -10.37,250.49 -15.82,502.84 -30.7,759.17zm1144.25 -990.26c486,-231.43 310.06,705.53 295.34,1233 -6.01,214.91 40.42,368.14 -161.91,397.72l33.2 -1262.47c-104,-89.9 -258.11,-154.48 -166.63,-368.25zm520.37 -1259.61c181.08,-165.39 714.54,-228.24 1032.51,-130.97 323.64,99 439.58,300.92 514.99,653.83 154.57,723.5 170.8,1378.15 -479.62,1751.08 3.83,383.58 435.89,958.6 502.62,1342.75 -200.22,45.37 -475.88,156.01 -692.81,145.49 -170.45,-256.6 -252.35,-1106.82 -407.57,-1212.97 -74.04,287.1 82.47,760.4 -47.84,1108.07 -54.04,65.35 -200.3,5.84 -284.75,-16.61 -122.39,-32.54 -173.84,-47.41 -272.48,-95.85 -42.06,-246.74 86.97,-3185.24 134.95,-3544.82zm-379.67 -267.68l-18.78 898.46c-136.99,80.23 -410.13,15.18 -596.27,20.14 -27.77,128.31 -50.77,295.73 10.31,431.11 93.84,208.03 227.42,186.52 302.16,196.15l5.37 725.14 -355.11 -21.7c-122.4,423.01 4.17,579.7 447.71,610.06 71.5,153.49 105.89,632.63 82.6,838.54l-35.47 116.49c-124.41,39.42 -904.67,-105.76 -972.25,-218.87 -70.43,-163.79 -44.76,-1805.97 -12.84,-2071.69 -78.14,-65.42 -32.66,18.84 -62.72,-96.35l13.88 -306.5c11.93,-152.1 6.59,-278.73 9.17,-430.04 -319.65,0 -360.47,36.3 -360.92,36.54 -85.8,-151.75 -32.83,-69.71 10.86,-120.03 -251.58,32.97 -421.12,-123.73 -572.03,120.28 -92.16,148.97 -94.78,491.02 -89.18,696.05 15.1,552.41 219.16,775.11 712.88,830.32l81.86 912.96c-108.42,108.41 -176.22,172.34 -376.2,151.74 -142.44,-14.68 -199.71,-70.55 -281.17,-112.61 -59.62,-30.78 -38.66,-19.99 -84.1,-30.47l-111.53 -23.12c40.37,110.05 51.83,156.1 57.11,275.27 29.94,147.84 251.37,296.82 383.07,368.12 297.47,161.05 373.56,95.81 697.31,99.68l14.45 253.35c207.78,63.49 1265.39,405.74 1297.93,146.99 8.17,-65.01 -5.25,-73.45 -7.69,-133.4 -5.51,-135.02 -14.67,-104.18 42.64,-187.21 96.51,21.58 79.38,16.24 106.47,132.62 28.99,124.55 23.16,144.61 68.49,242.47 181.32,100.13 470.55,160.47 733.9,168.29l-7.35 -409.92c183.78,22.86 229.13,298.8 344.73,463.98 330.05,4.74 593.88,-133.98 862.66,-203.64 -39.13,-332.21 -629.1,-1129.54 -453.86,-1382.56 209.43,-302.41 570.03,-369.2 400.82,-1495.09 -73.11,-486.45 -268.7,-1138.28 -559.51,-1370.83 -213.12,-170.42 -489.33,-161.68 -802.17,-156.88 -521.61,8.01 -518.44,134.51 -773.59,229.87 -9.43,-127.58 -5.81,-193.12 -92.63,-240.23l-47.69 -11.23 -13.32 57.75z"/>
  <path fill="#010101" d="M10417.52 1612.69c-132.58,174.81 -232.26,236.45 -526.63,227.83 -974.4,-28.54 -803.74,-812.49 105.03,-870.2 -75.12,148.2 -333.11,410.24 -96.52,632.81 72.24,67.95 224.93,139.39 341.73,59.96 110.21,-74.95 -4.94,-187.98 84.04,-321.33l92.35 270.93zm3033.75 2544.38c157.17,-24.71 151.58,-11.66 203.67,-160.69 -136.03,44.26 -156.21,37.26 -203.67,160.69zm-2090.79 -1105.45c194.46,-21.93 319.25,-5.26 510.62,21.92 26.69,233.74 4.9,288.27 95.53,412.36l255.98 9.32c-29.83,88.18 79.44,31.92 -180.25,109.68 -213.53,63.93 -176.66,290 -212.65,680.38 -39.48,428.27 -115.29,782.67 394.81,540.82 -16.79,124.34 8.98,65.26 -97.36,165.73l-39.74 39.43 22.22 24.3c223.72,-84.87 69.89,-124.02 249.04,-169.41 7.62,209.21 -9.11,343.93 187.3,437.15l-77.35 -394.37c163.4,10.97 -66.42,33.43 70.94,-154.76l-24.85 -108.05c-273.86,23.12 -296.51,-4.19 -567.77,61.5 9.58,-176.32 34.54,-639.58 78.03,-777.43 80.82,-256.16 388.04,-188.05 314.88,-512.82 -138.33,-72.38 -274.98,-43.04 -315.11,-221.24 -65.18,-289.45 109.63,-270 -263.57,-301.79 -176.72,10.59 -3.33,-23.1 -83.57,66.16 158.57,4.98 125.27,-4.72 193.96,43.8 -215.62,-39.86 -378.9,-99.33 -511.09,27.32zm749.16 2003.94l-22.22 -24.3c-208.12,-3.03 -428.34,120.31 -668.78,27.34 -210.17,-81.26 -146.38,-394.51 -143.97,-606.12 3.29,-290.31 113.83,-1241.98 85.81,-1400.86 132.19,-126.65 295.47,-67.18 511.09,-27.32 -68.69,-48.52 -35.39,-38.82 -193.96,-43.8 80.24,-89.26 -93.15,-55.57 83.57,-66.16 -592.44,-72.26 -886.65,76.92 -1086.8,517.77 -71.1,156.61 -177.48,186.83 -166.95,385.76 98.59,127.38 134.21,57.95 166.79,167.05 93.13,635.7 -340.48,1763.35 934.41,1375.86 98.1,-29.82 190.97,-75.2 270.09,-120.75 96.31,-55.43 192.71,-103.04 230.92,-184.47zm1341.63 -898.49c47.46,-123.43 67.64,-116.43 203.67,-160.69 -52.09,149.03 -46.5,135.98 -203.67,160.69zm-363.07 -13.57c-112.82,92.95 -139.24,62.43 -323.19,68.9 0.67,-188.12 -40.22,-163.05 -0.17,-348.49 137.42,30.82 126.51,24.34 298.27,20.94 -6.05,108.34 -12.03,81.64 7.37,174.59l17.72 84.06zm-402.66 486.07c188.77,30.79 121.27,-31.45 151.27,90.41l24.06 -50.65c28.12,180.9 62.1,122.85 -2.09,253.2l161.12 20.1c-72.84,-213.93 -146.26,-300.64 77.66,-489.26 122.96,-103.56 285.62,-175.21 488.67,-184.83 -12.58,37.36 -12.96,51.17 -32.8,95.38l217.67 9.74 -44.65 -148.21c-5.49,-9.09 -15.16,-20.86 -22.33,-31.58 122.16,-52 49.11,17.87 64.54,-142.13l-20.99 1.69c-66.07,-52.25 -42.75,-63.21 -54.27,-135.16 -174.97,6.92 -54.61,21.7 -181.32,-20.95l37.08 -243.42c-86.42,56.42 -29.49,-125.67 -82.29,196.68 -73.56,449.11 -748.91,-65.23 4.45,-331.49 290.41,-102.63 1015.17,-171.34 1007.01,465.74 -2.25,176.21 -21.33,357.62 -27.99,534.59 -3.29,87.4 -6.93,184.16 16.69,258.23 20.23,63.44 39.55,74.32 48.7,88.84 4.16,6.62 11.03,14 15.08,20.36l38.48 67.01c-204.66,126.06 -400.6,51.25 -473.94,-135.38 -72.54,-184.62 -44.64,-552.04 -36.79,-766.57 -95.32,88.24 -60.14,274.16 -60.14,398.53 -38.49,-12.47 2.72,-61.95 20.6,127.42 -11.95,-5.91 -29.48,-30.26 -34.88,-19.6 -21.55,42.5 -63.62,-118.79 -69.45,-1.19 -158.24,-2.81 -50.66,-58.31 -116.62,66.43 79.06,17.92 80.57,-38.75 110.85,93.92 14.06,61.58 -13.49,140.21 -28.19,198.78 85.45,42.23 36.36,38.45 167.53,8.57 35.97,206.35 89.03,103.8 193.65,184 90.77,69.58 17.72,15.51 71.4,93.51 -162.94,45.95 -51.28,14.27 -114.54,92.73 194.21,-27.67 457.7,-225.28 536.23,-374.56 -35.45,-217.14 -141.96,-174.06 -136.99,-500.92 5.75,-379.13 311.87,-1161.03 -800.51,-1097.57 -656.91,37.48 -1502.55,621.05 -1139.68,969.1 100.35,96.26 121.87,71.47 259.4,74.19 -26.31,52.08 -45.39,77.35 -86,120.09l-127.69 121.01c-4.66,5.12 -12.08,15.41 -17.99,23.22zm-170.82 36.55l24.85 108.05c-137.36,188.19 92.46,165.73 -70.94,154.76l77.35 394.37c144.31,254.78 724.3,22.33 814.76,-4.3 253.39,-74.58 652.04,177.51 838.03,-23.99 63.26,-78.46 -48.4,-46.78 114.54,-92.73 -53.68,-78 19.37,-23.93 -71.4,-93.51 -104.62,-80.2 -157.68,22.35 -193.65,-184 -131.17,29.88 -82.08,33.66 -167.53,-8.57 -129.17,107.03 -168.09,152.63 -417.55,143.49 -241.34,-8.84 -283.98,-71.2 -443.28,-117.06l-161.12 -20.1c64.19,-130.35 30.21,-72.3 2.09,-253.2l-24.06 50.65c-30,-121.86 37.5,-59.62 -151.27,-90.41l-170.82 36.55zm1034.44 -1012.22l-37.08 243.42c126.71,42.65 6.35,27.87 181.32,20.95 11.52,71.95 -11.8,82.91 54.27,135.16l20.99 -1.69c-15.43,160 57.62,90.13 -64.54,142.13 7.17,10.72 16.84,22.49 22.33,31.58l44.65 148.21 -217.67 -9.74c-155.05,65.34 -171.16,364.95 -49.5,480.37 59.72,56.67 193.45,98.7 284.45,35.54 76.72,-53.26 32.06,-167.01 9.69,-256.33 65.96,-124.74 -41.62,-69.24 116.62,-66.43 5.83,-117.6 47.9,43.69 69.45,1.19 5.4,-10.66 22.93,13.69 34.88,19.6 -17.88,-189.37 -59.09,-139.89 -20.6,-127.42 0,-124.37 -35.18,-310.29 60.14,-398.53l35.27 -389.16c-93.43,-92.94 -113.01,-125.18 -261.74,-128.17 -104.54,-2.09 -269.81,23.34 -282.93,119.32zm-784.15 558.5c183.95,-6.47 210.37,24.05 323.19,-68.9l-17.72 -84.06c-19.4,-92.95 -13.42,-66.25 -7.37,-174.59 -171.76,3.4 -160.85,9.88 -298.27,-20.94 -40.05,185.44 0.84,160.37 0.17,348.49zm-8281.55 65.47l58.82 -2.88 19.54 -86.98 -78.58 -9.45 0.22 99.31zm-1229.31 -1349.91c-89.97,301.87 126.39,1318.78 64.8,1767.53 -123.13,92.62 -284.06,128.4 -262.74,348.57 225.98,54.64 1246.63,65.97 1535.98,26.1 344.72,-47.49 304.62,-247.01 225.04,-315.76 -110.27,-95.27 -163.46,-54.03 -300.78,-101.25 -51.59,-156.76 -35.1,-209.65 -32.99,-375.28l-0.22 -99.31 78.58 9.45c47.49,99.28 10.56,92.56 153.54,86.02 -7.2,34.01 26.8,43.76 79.24,65.79 24.26,-133.48 -49.77,-22.33 63.67,-121.01 -7.18,-100.77 -80.23,-306.66 -63.88,-380.8 -20.33,-43.85 23.79,-27.32 -69.61,-93.92 -52.24,-37.26 -343.61,-162.84 -388.89,40.52 -6.1,27.42 -4.38,34.35 -6.45,64.48 -2.74,39.81 2.67,124.14 3.33,169.24 15.93,1087.37 97.04,653.16 378.26,835.29 -84.53,55.12 -167.14,29.41 -297.17,20.68l-769.16 -44.18c-202.62,-30.19 -33.13,6.21 -109.85,-43.32 29.36,-17.12 21.56,-22.52 80.6,-35.36l168.37 1.78c117.7,-286.34 -32.8,-1422.8 -62.2,-1804.23 -89.19,-99.27 -74.63,142.71 -74.63,-156.33 -23.99,101.91 -6.39,170.54 -14.09,289.05 -8.53,131.2 -28.44,49.23 -42.31,212.13 17.64,-52.91 -7.22,-125.53 -7.28,-126.29 -12.78,-154.58 18.23,64.09 16.89,-150.64 -0.66,-107.04 -27.1,-177.72 -20.42,-352.11l-233.48 -14.1c-90.81,108.62 -9.67,-152.88 -92.15,277.26zm0 0c82.48,-430.14 1.34,-168.64 92.15,-277.26l233.48 14.1c-6.68,174.39 19.76,245.07 20.42,352.11 1.34,214.73 -29.67,-3.94 -16.89,150.64 0.06,0.76 24.92,73.38 7.28,126.29 13.87,-162.9 33.78,-80.93 42.31,-212.13 7.7,-118.51 -9.9,-187.14 14.09,-289.05 0,299.04 -14.56,57.06 74.63,156.33 -6.89,-169.68 7.63,-306.21 -107.2,-396.68 -6.08,-4.79 -14.37,-8.55 -21.01,-13.4l-103.53 -76.64c259.61,-6.78 1991.56,-45.06 2062.95,80.4 38.37,67.44 136.22,454.85 64.1,568.03 -112.93,-39.22 -36.69,16.23 -96.19,-132.62 -33.84,-84.66 -37.17,-90.63 -117.2,-136.21 70.15,300.92 79.49,195.76 100.6,359.87l-140.77 -31.71c-69.58,6.53 -70.18,-81.21 -59.59,6.61 -176.94,36.85 30.51,-19.16 -143.78,121.18 -20.15,-108.62 -21.64,-128.5 -94.57,-196.43l-67.2 -51.99c25.31,-73.01 23.31,-74.15 59.52,-140.05 -15.89,18.09 -31.03,66.99 -46.18,100.23l-133.41 -89.68c24.94,74.44 19.76,25.95 -48.05,58.33l8.52 104.58c-160.58,103.03 -308.14,326.69 -411.3,353.4 -12.88,-202.62 -28.78,-468.41 54.29,-624.08 151.06,6.59 191.77,58.65 313.57,113.03l-23.43 -289.18c136.98,-9.79 127.64,27.03 276.78,-8.71 -102.56,-78.62 -218.8,-64.78 -366.41,-62.82 -140.53,1.86 -276.22,-4.25 -389.03,50.59 -40.79,197.72 -50.84,678.49 2.28,868.7 156.2,138.64 273.86,130.52 445.31,24.53 232.53,-143.75 148.2,-300.07 301.38,-360.26l-12.24 958.25c-168.37,-42.64 -33.01,-99.99 -145.95,-220.36 -88.83,-94.66 -6.51,-21.05 -89.49,-47.89 -16.35,74.14 56.7,280.03 63.88,380.8 -113.44,98.68 -39.41,-12.47 -63.67,121.01 -52.44,-22.03 -86.44,-31.78 -79.24,-65.79 -142.98,6.54 -106.05,13.26 -153.54,-86.02l-19.54 86.98 12.7 99.88c307.79,14.34 559.08,-47.96 634.18,-280.06 105.35,-325.6 -163.93,-449.93 127.25,-734.56 0.02,0 625.57,27.34 457.83,-699.76 -91.67,-397.36 -218.56,-313.97 -858.53,-320.48 -506.1,-5.14 -1952.06,-167.02 -1915.11,390.44 40.92,26.85 81.46,28.36 135.51,58.69 78.28,43.93 57.22,61.92 118.04,138.82zm1541.04 -2.8l34.92 53.07c67.81,-32.38 72.99,16.11 48.05,-58.33l133.41 89.68c15.15,-33.24 30.29,-82.14 46.18,-100.23 -36.21,65.9 -34.21,67.04 -59.52,140.05l67.2 51.99c72.93,67.93 74.42,87.81 94.57,196.43 174.29,-140.34 -33.16,-84.33 143.78,-121.18 -10.59,-87.82 -9.99,-0.08 59.59,-6.61l140.77 31.71c-21.11,-164.11 -30.45,-58.95 -100.6,-359.87 -12.32,-47.54 8.55,-28.12 -36.34,-75.95 -29.64,-31.56 -69.25,-51.49 -98.31,-69.73 -102.86,-64.54 -103.53,-72.5 -220.35,-68.92 -149.14,35.74 -139.8,-1.08 -276.78,8.71l23.43 289.18zm5066.92 -2168.57l16.25 -1.14c35.82,-43.3 -40.39,-55.54 119.53,-73.37 48.53,54.96 56.25,-61.53 38.32,91.97 -8.7,74.52 -86.37,176.54 -254.04,60.8l79.94 -78.26zm-10.95 -146.24c-404.75,296.55 -665.74,-105.27 -279.69,-322.82 257.77,-145.26 598.95,-213.6 954.72,-147.16 709.54,132.49 537.08,495.47 528.37,1239.66 -3.69,314.67 114.65,239.86 169.02,399.72 -300.79,160.22 -653.52,-17.56 -696.29,-335.85 -18.79,-139.82 18.66,-166.75 26.98,-270.15 8.36,-104 -34.75,-162.98 -41.94,-261.44 -15.97,-218.69 85.16,-279.48 35.32,-535.85 -134.94,-194.07 -449.62,-236.26 -679.49,-66.85l-17 300.74zm-584.78 431.87c-138.56,304.38 -678.89,259.64 -681.95,670.18 -3.06,409.34 458.41,548.44 891.63,454.05 189.21,-41.22 372.82,-137.3 575.55,-81.86 282.19,77.15 182.06,304.95 999.98,-82.54 138.15,-65.44 355.86,-104.06 368.84,-322.53 -170.13,-177 -246.48,-111.5 -212.62,-501.82 58.43,-673.56 171.57,-1203.83 -982.84,-1181.09 -1114.1,21.94 -2042.02,1072.85 -958.59,1045.61zm-1846.29 3517.02c37.45,66 81.51,197.09 95.64,260.97 -152.39,214.15 -333.5,260.29 -662.48,201.42 -854.56,-152.92 -477.38,-813.54 227.43,-795.27 -50.09,103.49 -344.17,325.65 -79.99,579.23 45.68,43.85 328.63,235.2 359.84,-85.57 3.96,-40.67 -10.38,-33.47 6.68,-94.2 31.22,-111.04 19.36,-40.58 52.88,-66.58zm-501.62 -474.09c38.67,-106.48 67.98,-112.4 179.8,-141.83l-6.94 146.71c-98.49,31.92 -68.35,48.21 -172.86,-4.88zm690.99 -467.75c-76.36,-92.1 -91.86,-103.09 -226.6,-119.76 -638.17,-78.98 -338.17,337.29 -575.33,446.73 -340.97,157.34 -544.79,-435.86 277.19,-535.67 401.13,-48.71 959.14,44.71 1040.65,378.67 40.11,164.3 5.28,515.59 -0.1,698.92 -11.92,405.33 96.14,368.27 199.83,503.86 -316.22,110.02 -651.09,28.43 -706.51,-305.6 -21.08,-127 10.99,-189.96 10.7,-299.97 -0.26,-100.36 -37.57,-138.92 -44.15,-233.87 -13.82,-199.4 88.4,-281.95 24.32,-533.31zm-1221.77 634.96c-33.79,189.05 -197.56,188.41 -362.06,278.18 -557.74,304.42 -157.79,994.28 590.75,819.44 168.18,-39.28 346.63,-137.59 517.16,-81.6 430.04,141.19 196.75,259.76 1001.55,-70.01 161.83,-66.31 355.32,-100.51 381.85,-277.92 -113.97,-187.35 -268.48,-59.22 -229.67,-468.98 59.44,-627.86 173.16,-1140.12 -899.56,-1180.62 -1102.25,-41.62 -2079.78,1031.78 -1000.02,981.51zm2833.7 -1770.96c13.19,-6.09 841.95,-130.58 867.86,71.64 5.47,42.65 6.05,49.28 5.45,93.35 -8.94,654.15 -127.54,1866.13 104.45,2383.36l-907.22 31.38c155.72,-321.58 256.05,397.51 226.45,-1176.45 -4.79,-255.07 -16.27,-1161.82 -73.9,-1324.1 -241.16,-56.82 -57.71,46.81 -223.09,-79.18zm-624.08 300.7c119.59,80.13 218.73,81.13 245.82,115.65 41.47,139.61 95.53,1970.64 55.94,2061.88 -78.21,129.21 -254.97,68.57 -286.97,194.7 14.31,124.48 23.63,137.31 134.51,178.49 338.79,125.86 1038.04,67.52 1425.96,-63.53 189.9,-64.16 316.03,-100.48 275.87,-339.23 -83.27,-46.61 -118.02,-45.11 -185.39,-78.91 -133.61,-447.33 35.65,-2253.88 -89.72,-2516.89 -249.63,-85.31 -1649.34,-34.84 -1576.02,447.84zm-313.88 4878.27l293.15 -62.08c25.68,-57.23 -43.64,-37.26 51.83,-50.96l-20.64 -94.66c-9.87,-22.2 6.56,1.94 -26.39,-53.95 -248.9,-422.29 -110.07,-726.2 397.09,-787.94 156.03,-39.35 56.93,3.37 52.12,263.4l-1.46 70.38 38.48 505.61c-53.14,92.19 127.94,75.87 -84.34,76.39l23.91 42.1c2.93,6.24 14.11,33.72 18.68,42.68 56.81,111.37 0.74,28.34 63.81,103.06l555 15.19c-81.17,-87.59 -127.15,-67.21 -429.91,-60.91l102.26 20.62 26.87 -137.19c5.37,6.33 15.11,18.09 23.3,26.56 11.63,-173.13 -21.81,-293.3 -0.42,-487.26 31.94,-289.5 -10.15,-358.02 89.5,-466.8 2.2,-134.4 7.87,-267.25 9.89,-401.89 2.48,-165.03 -22.68,-275.29 157.95,-252.24 90.43,-152.91 29.74,-33.85 143.65,-115.97 -42.19,-68.41 -711.26,-30.92 -961.8,235.35 105.37,63.47 114.83,39.5 217.89,126.77l9.99 215.64c-206.99,140.75 -952.87,151.83 -938.67,860.73 2.87,143.54 69.78,355.37 188.26,367.37zm1340.68 -1689.89c288.29,106.7 164,435.73 119.73,851.68 -29.96,281.55 103.97,853.17 -186.68,734.65 -198.8,-163.34 -107.01,-632.79 -100.89,-932.2 -99.65,108.78 -57.56,177.3 -89.5,466.8 -21.39,193.96 12.05,314.13 0.42,487.26 -8.19,-8.47 -17.93,-20.23 -23.3,-26.56l-26.87 137.19 -102.26 -20.62c302.76,-6.3 348.74,-26.68 429.91,60.91l-555 -15.19c-63.07,-74.72 -7,8.31 -63.81,-103.06 -4.57,-8.96 -15.75,-36.44 -18.68,-42.68l-23.91 -42.1c212.28,-0.52 31.2,15.8 84.34,-76.39 -163.9,17.94 -175.16,-18.04 -198.81,-195.07 -16.64,-124.59 -2.64,-268.13 19.79,-368.07 138.75,19.9 29.37,-23.39 140.54,57.53l1.46 -70.38c4.81,-260.03 103.91,-302.75 -52.12,-263.4 -55.27,148.87 -231.31,133.6 -255.91,413.84 -23.98,273.23 87.09,341.12 99.25,533.14 -93.78,-39.68 -125.57,-70.28 -214.04,-105.09l20.64 94.66c-95.47,13.7 -26.15,-6.27 -51.83,50.96l-293.15 62.08c82.06,157.28 291.63,177.6 485.34,138.51 240.15,-48.47 402.98,-19.08 654.9,-10.77 316.55,10.43 285.38,-26.08 519.5,-114.95 207.96,-78.96 397.04,23.22 603.14,55.78 -78.4,-81.36 140.18,-68.57 -120.97,-68.57 -9.37,-5.98 -32.59,-15.41 -39.24,-19.1l-96.73 -75.54c-49.04,-34.66 -110.14,-43.18 -191.55,-51.8l63.09 -113.2c21.98,-45.84 8.84,-17.83 5.65,-57.26 -7.88,-97.24 -6.23,-154.99 -27.67,-250.53 -175,116.31 64.43,373.57 -253.56,375.03 2.7,-323.42 98.76,-1378.31 4.71,-1578l-122.28 -35.46c-113.91,82.12 -53.22,-36.94 -143.65,115.97zm1268.3 1626.61c-572.07,-13.65 -602.19,-904.14 -24.51,-944.66l5.74 139.07 0.14 33.42c1.85,450.41 -181.12,301.08 18.63,772.17zm415.85 -574.18c-97.53,50.74 -173.46,64.64 -286.78,2.48 67.08,-113.63 116.63,-38.21 281.47,-107.25 49.28,-143.7 9.45,-155.83 -10.39,-294.38 145.08,37.13 270.07,164.83 275.95,349.82l-260.25 49.33zm-1169.37 70.03c21.44,95.54 19.79,153.29 27.67,250.53 3.19,39.43 16.33,11.42 -5.65,57.26l-63.09 113.2c81.41,8.62 142.51,17.14 191.55,51.8l96.73 75.54c6.65,3.69 29.87,13.12 39.24,19.1 261.15,0 42.57,-12.79 120.97,68.57 273.88,175.69 1268.9,-62.43 1171.83,-494.3 -296.11,-38.1 -399.58,370.32 -767.59,198.97l-14 -161.71c266.77,-44.07 584.54,-57.76 772.12,-259.43 29.24,-405.72 -380.93,-629.59 -790.65,-531.08 -286.47,68.86 -763.42,368.42 -779.13,611.55z"/>
  <path fill="#010101" d="M11461.71 16875.22l-185.36 -3.02c-128.57,-208.77 -93.89,-511.83 205.58,-475.35 172.45,178.58 79.79,342.93 -20.22,478.37zm-798.1 -1102.58c150.39,11.59 314.04,0.25 423.86,-65.63 199.1,-119.44 41.74,-205.8 391.69,-173.19 177.68,210.58 169.89,184.95 131.12,532.38 -301.71,73.08 -461.53,-32.55 -684.59,213.66 -131.74,145.4 -245.56,448.43 -83.27,686.72 114.87,168.66 352.78,272.41 645.53,238.82 115.9,-13.3 254.73,-58.05 365.99,-95.83 197.59,-67.08 189.41,-45.62 207.54,-259.34 42.76,-504.27 115.26,-1356.35 -260.42,-1577.36 -427.42,-251.47 -1116.13,111.26 -1137.45,499.77z"/>
  <path fill="#010101" d="M8478.39 16814.13l-56.55 102.86c-101.84,-32.21 -30.67,36.56 -74.98,-70.58 8.56,-326.14 -81.81,-1016.56 50.64,-1256.52 104.82,-15.46 641.89,210.47 506.26,-324.5 -174.16,-24.18 -370.81,-16.08 -501.69,-66.82 -3.66,-9.08 -9.83,-31.48 -11,-27.23l-23.35 -308.67c-138.92,-42.7 -232.74,-53.32 -373.11,-14.42l-15.12 340.48c-164.51,22.37 -173,13.2 -311.39,64.43l-5.04 282.02c438.52,85.95 279.6,-54.46 273.47,611.13 -1.65,179.65 -4.97,714.68 74.83,849.22 220.41,371.64 1074.93,22.49 1008.92,-511.77l-405.02 -95.16c-37.88,124.75 -68.02,357.24 -136.87,425.53z"/>
  <path fill="#010101" d="M6205.6 15424.89c489.62,-311.14 1153.05,734.23 734.07,944.6 -299.44,150.36 -601.42,-61.09 -721.81,-223.36 -62.8,-84.63 -141.87,-232.88 -158.62,-370.88 -33.28,-274.12 63.61,-297.77 146.36,-350.36zm-75.02 -179.27c-509.4,139.08 -679.24,566.52 -340.98,996.18 188.47,239.39 714.16,531.96 1201.27,406.57 999.68,-257.33 461.65,-1763.69 -860.29,-1402.75z"/>
  <path fill="#010101" d="M9238.23 15265.97c-6.07,379.18 19.54,763.59 12.86,1148.09 -6.3,363.33 -52.66,710.23 -50.95,1055.98 176.46,17.24 384.22,26.19 517.25,-53.64 25.02,-406.07 -79.2,-843.17 -15.29,-1547.87 25.54,-281.64 -8.28,-231.69 133.21,-435.64 348.15,58.07 109.23,281.15 322.89,497.06 196.06,21.52 310.12,-12.02 305.62,-216.74 -13.62,-621.48 -534.45,-495.2 -1225.59,-447.24z"/>
  <path fill="#010101" d="M11904.9 25889.36l72.42 -235.37 -275.34 12.69c-96.76,12.35 -147.57,61.73 -196.57,109.78 -62.73,518.15 -178.95,1072.12 -445.63,1396.36 -127.61,-147.94 -135.29,-589.43 -140.09,-770.4 -8.43,-318.1 -272.76,-384.32 -495.1,-198.75 57.34,196.54 164.66,412.94 223.52,643.35 79.06,309.53 61.19,768.3 181.76,794.2 45.83,9.85 44.3,12.25 95.43,11.76 161.74,-1.54 271.75,-60.71 342.47,-201.1 146.64,-291.08 612.81,-1358.38 637.13,-1562.52z"/>
  <path fill="#010101" d="M7864.34 26537.79c0,698.73 -271.97,1176.6 368.81,949.95 27.31,-361.26 -139.96,-336.17 55.81,-646.23 351.02,-45.86 382.42,19.5 395.06,-270.21l-92.75 -88.41c-67.58,-29.03 -368.59,81.4 -409.14,-113.5 -20.78,-99.87 1.94,-268.17 54.98,-351.63 199.63,-314.18 956.6,68.52 962.94,-281.63 3.09,-170.79 4.03,-17.39 -26.98,-87.51 -213.64,-49.98 -853.66,-41.76 -1119.74,-36.46 -292.7,5.85 -232.09,107.21 -215.13,358.87 13.21,195.97 26.14,360.36 26.14,566.76z"/>
  <path fill="#010101" d="M9598.79 27237.24c-18,-132.53 -8.93,-233.94 55.48,-334.04l159.28 -15.19c70.94,139.91 128.2,272.16 11.15,439.19l-137.34 5.29 -88.57 -95.25zm-419.13 -890.82c416.81,90.36 276.45,-233.59 652.46,-171.62 108.69,127.28 153.46,245.74 76.42,477.67 -534.43,1.34 -752.7,335.56 -619.1,657.79 161.72,390.08 672.66,238.56 988.2,154.95 1.04,-369.02 87.33,-1174.88 -132.76,-1414.87 -336.15,-366.54 -995.62,54.64 -965.22,296.08z"/>
  <path fill="#010101" d="M3715.59 25702.49c250.63,-84.6 271.07,349.88 207.29,511.07 -116.23,43.02 -79.64,50.48 -195.79,10.71 -69.68,-88.07 -74.73,-398.89 -11.5,-521.78zm-257.72 1531.45c128.81,114.89 53.75,87.11 333.91,91.34 5.72,-157.79 -49.05,-394.92 -71.33,-564.56 -52.87,-402.57 156.77,-178.05 352.98,-298.78 428.02,-263.39 -0.74,-1298.7 -529.84,-1094.36 -204.8,79.1 -127.31,321.5 -107.28,523.95 43.44,439.05 -18.39,934.16 21.56,1342.41z"/>
  <path fill="#010101" d="M4783.52 25702.49c328.4,-189.62 853.76,659.07 561.43,863.23 -370.9,259.04 -880.07,-679.24 -561.43,-863.23zm-58.28 -135.84c-472.7,140.37 -377.27,545.7 -190.71,818.18 155.95,227.75 475.53,476.53 873.66,405.53 677.55,-120.82 203.46,-1486.93 -682.95,-1223.71z"/>
  <path fill="#010101" d="M5943.03 27575.61l174.91 4.05c179.53,-245.18 -180.33,-1784.18 200.22,-1680.95 209.3,56.77 -1.29,458.14 333.92,430.16 109.75,-186.74 56.75,-423.04 -120.57,-537.43 -134.81,-86.97 -530.2,-127.17 -712.31,-122.77 31.13,691.6 51.09,774.43 17.14,1470.49 -12.28,251.86 -27.52,298.36 106.69,436.45z"/>
  <path fill="#010101" d="M12442.51 26337.32c-210.54,-561.44 494.53,-763.19 648.94,-293.38 201.23,612.31 -486.04,727.82 -648.94,293.38zm363.25 -735.34c-1002.09,249.5 -851.96,1285.93 -42.56,1203.15 824.71,-84.35 862.48,-1407.28 42.56,-1203.15z"/>
  <path fill="#010101" d="M13545.94 25401.79c-60.77,192.99 -18.02,696.26 -26.28,935.56 -10.43,302.01 -42.31,571.16 -81.51,861.94 128.84,8.35 216.89,-20.79 307.35,-93.5 15.31,-309.07 -2.94,-619.63 15.93,-935.79 28.52,-477.8 -8.57,-708.11 237.23,-702.62l56.23 340.89c240.28,-58.31 277.99,-388.82 102.81,-502.83 -112.07,-72.93 -492.77,18.82 -611.76,96.35z"/>
  <path fill="#010101" d="M5939.57 21335.49c401.41,56.22 478.54,-417.91 331.83,-734.8 -39.25,-84.76 -231.01,-326.97 -302.71,-135.05 -51.91,138.94 -41.19,671.78 -29.12,869.85z"/>
  <path fill="#010101" d="M608.18 20262.21c161.56,-166.5 76.53,-450.65 -88.56,-493.45 -88.65,168.43 -84.32,385.52 88.56,493.45z"/>
 </g>
</svg>
