<?xml version="1.0" encoding="UTF-8"?>
<!DOCTYPE svg PUBLIC "-//W3C//DTD SVG 1.0//EN" "http://www.w3.org/TR/2001/REC-SVG-20010904/DTD/svg10.dtd">
<!-- Creator: CorelDRAW 2017 -->
<svg xmlns="http://www.w3.org/2000/svg" xml:space="preserve" width="33.2738mm" height="16.2558mm" version="1.0" style="shape-rendering:geometricPrecision; text-rendering:geometricPrecision; image-rendering:optimizeQuality; fill-rule:evenodd; clip-rule:evenodd"
viewBox="0 0 3327.38 1625.58"
 xmlns:xlink="http://www.w3.org/1999/xlink">
 <defs>
  <style type="text/css">
   <![CDATA[
    .fil0 {fill:#111212}
   ]]>
  </style>
 </defs>
 <g id="Capa_x0020_1">
  <metadata id="CorelCorpID_0Corel-Layer"/>
  <path class="fil0" d="M214.26 1177.53l118.29 -7.08c13.18,-7.86 60.01,-5.98 81.23,-9.1l24.21 -7.77 -0.62 -26.13 -223.11 50.08zm-20.18 -72.3l-82.93 21.85 33.56 2.9c1.43,-0.9 3.29,-1.85 4.54,-2.38l13.71 -5.37c20.05,-5.51 236.06,-27.16 273.34,-36.51l1.7 -36.55 -243.92 56.06zm-95.74 -43.51l-32.86 14.4 132.21 -21.54 239 -42.18 1.74 -39.53 -340.09 88.85zm276.11 -151.25c-13.62,8.02 -346.96,108.42 -375.5,114.88l110.39 -19.17 289.13 -59.5c46.79,-7.9 39.39,-7.11 39.37,-51.98l-63.39 15.77zm1136.37 306.96l-172.07 32.93 140.82 18.46 -41.68 101.84 -175.42 -39.45c-52.58,-43.96 -72.42,-61.81 -141.37,-91.28 -68.05,-29.09 -147.79,-50.86 -227.46,-50.82 -31.17,0.03 -62.35,0 -93.52,0 -32.96,0 -57.9,-2.27 -91.23,-2.27l-225.81 -34.22 0 -38.77c-18.14,-8.71 -18.4,-5.75 -18.26,-38.77 0.09,-19.41 0.66,-40.12 0.08,-59.39l-2.35 -54.67c0,-104.91 -3.13,-54.19 185.55,-108.68 63.36,-18.31 107.71,-35.98 158.15,-76.78 55.53,-44.94 47.67,-42.3 83.79,-91.84 17.64,-24.19 19.96,-31.09 31.01,-55.67 21.28,-47.37 40.22,-99.16 56.69,-148.59 17.52,-52.57 35.52,-127.9 50.49,-184.44 8.26,-31.19 15.72,-60.43 23.69,-92.64 7.72,-31.2 20.82,-59.14 38.54,-80.06 49.14,-58.06 103.82,-59.93 166.47,-68.47 20.73,-2.83 300.63,-0.48 348.4,-0.68 55.52,-0.23 137.86,23.36 173.92,61.02 18.88,19.71 34.01,48.35 45.79,72.82 12.69,26.36 19.36,58.23 29.15,87.17 24.55,72.48 77.56,274.16 77.31,330.97l-0.14 148.4c0.16,12.67 2.3,14.52 2.46,27.19 0.96,77.54 -1.91,133.21 -32.8,202.32 -12.89,28.84 -23.84,51.31 -47.42,68.9 -32.13,23.97 -46.02,25.65 -84.09,34.51 -0.77,9.2 -24.93,61.03 -30.31,74.63 -3.44,8.71 -7.04,18 -10.75,25.74 68.13,32.69 6.06,0.88 74.2,35.45l-81.22 63.99c-48.16,37.95 -160.21,-58.77 -210.61,-68.85zm336.58 -744.46l-337.03 0.25c-2.95,-34.63 -6.09,-68.07 -9.19,-101.74 -2.06,-22.29 -10.25,-82.53 -7.97,-100.88l298.22 0.01 55.97 202.36zm-383.34 0.28l-335.07 -0.01 16.42 -202.09 291.27 -0.76c9.41,0.94 7.49,-0.97 9.61,22.3 1.8,19.77 3.93,39.51 5.89,59.37 3.95,39.98 9.17,81.17 11.88,121.19zm13.71 -375.44c83.92,19 57.36,144.1 -26.45,127.59 -84.17,-16.59 -58.6,-146.84 26.45,-127.59zm304.78 652.76c37.97,7.56 70.62,42.95 60.44,90.15 -20.75,96.26 -169.04,68.73 -148.96,-30.7 7.39,-36.6 43.31,-68.45 88.52,-59.45zm-568.99 0.59c103.46,20.43 69.64,169.3 -28.74,148.91 -95.18,-19.74 -68.3,-168.07 28.74,-148.91zm-695.24 233.93l-0.03 -68.55c59.29,-12.94 72.43,-5.57 154.12,-30.77 129.27,-39.88 194.14,-78.53 264.36,-196.39 11.67,-19.58 20.31,-40.68 31.27,-61.02 3.57,63.66 0,135.68 0.35,200.38 0.14,25.31 2.46,23.6 -13.98,35.69 -10.04,7.4 -17.88,13.44 -29.37,20.8 -68.05,43.62 -137.5,69.87 -221.33,84.28 -36.84,6.34 -151.79,21.45 -185.39,15.58zm-389.12 588.83c0,12.92 3.62,24.76 10.86,35.52 7.25,10.77 18.31,16.15 33.18,16.15 9,0 16.83,-3.33 23.49,-9.98 6.65,-6.66 11.55,-14.09 14.68,-22.32l42.86 -112.74c1.18,-2.74 2.84,-6.06 4.99,-9.98 2.16,-3.91 4.6,-7.44 7.34,-10.57 2.74,-3.13 5.78,-5.87 9.11,-8.22 3.32,-2.35 6.75,-3.52 10.27,-3.52 3.92,0 6.26,1.86 7.05,5.58 0.78,3.72 1.17,6.95 1.17,9.69 0,9 -1.86,17.51 -5.58,25.54 -3.71,8.02 -5.57,16.54 -5.57,25.54l0 10.57c1.56,4.31 3.23,7.24 4.99,8.81 1.76,1.56 4.79,2.35 9.1,2.35 9.39,0 16.64,-2.84 21.72,-8.52 5.09,-5.67 9.4,-12.33 12.92,-19.96 3.53,-7.64 6.76,-15.56 9.69,-23.78 2.94,-8.22 6.75,-14.68 11.45,-19.38 2.35,-3.13 5.48,-6.65 9.4,-10.57 3.91,-3.91 8.22,-5.87 12.91,-5.87 4.31,0 6.76,1.86 7.34,5.58 0.59,3.72 0.89,6.95 0.89,9.69l0 4.11c0,1.56 -0.2,2.34 -0.59,2.34l-42.87 118.03c-1.17,3.13 -1.76,5.87 -1.76,8.22l0 8.81 0 9.98c1.18,4.31 3.43,7.14 6.75,8.51 3.33,1.37 6.95,2.06 10.87,2.06 10.57,0 21.04,-2.64 31.41,-7.93 10.38,-5.28 19.97,-12.03 28.77,-20.26 8.81,-8.22 16.54,-17.32 23.2,-27.3 6.65,-9.98 11.74,-19.47 15.27,-28.48 1.17,-2.35 3.03,-6.75 5.57,-13.21 2.55,-6.46 5.09,-13.31 7.64,-20.55 2.54,-7.24 4.99,-14.09 7.34,-20.55 2.35,-6.46 3.91,-11.06 4.69,-13.8 1.18,-3.53 1.77,-7.44 1.77,-11.75l0 -12.33c0,-11.74 -1.96,-21.43 -5.88,-29.06 -3.91,-7.64 -11.54,-13.8 -22.9,-18.5 -1.95,-0.78 -5.18,-1.86 -9.69,-3.23 -4.5,-1.37 -7.73,-2.05 -9.68,-2.05l-172.05 0c-10.96,0 -21.82,2.34 -32.59,7.04 -10.76,4.7 -20.84,10.87 -30.24,18.5 -9.39,7.63 -17.62,16.24 -24.66,25.84 -7.05,9.59 -12.33,19.27 -15.86,29.06 -6.26,16.44 -12.62,32.3 -19.08,47.56 -6.46,15.27 -9.69,31.71 -9.69,49.33zm352.9 0c0,10.18 1.67,18.89 4.99,26.13 3.33,7.24 10.08,13.4 20.26,18.49 2.35,1.18 6.17,2.65 11.45,4.41 5.29,1.76 9.1,2.64 11.45,2.64l172.05 0c3.52,0 7.63,-0.78 12.33,-2.35 4.7,-1.56 9,-3.72 12.92,-6.26 3.91,-2.55 7.24,-5.68 9.98,-9.2 2.74,-3.62 4.11,-7.54 4.11,-11.84 0,-5.58 -2.54,-10.67 -7.63,-15.17 -5.09,-4.6 -10.38,-6.85 -15.86,-6.85l-121.55 0c-3.52,0 -7.43,-1.37 -11.74,-4.11 -4.31,-2.74 -6.46,-6.07 -6.46,-9.99 0,-2.64 1.27,-5.48 3.82,-8.41 2.54,-2.94 5.48,-5.48 8.81,-7.64 3.32,-2.15 6.85,-3.91 10.57,-5.28 3.71,-1.37 6.75,-2.06 9.1,-2.06l123.89 0c0,0 1.37,-0.48 4.11,-1.46 2.74,-0.98 4.9,-1.86 6.46,-2.65 8.22,-3.42 15.17,-8.22 20.85,-14.28 5.67,-6.07 10.27,-12.82 13.8,-20.16 3.52,-7.44 6.06,-15.37 7.63,-23.79 1.57,-8.31 2.35,-16.63 2.35,-24.85 0,-11.65 -1.96,-21.34 -5.87,-28.97 -3.92,-7.63 -11.55,-13.7 -22.9,-18.4 -1.96,-0.78 -5.19,-1.86 -9.69,-3.23 -4.5,-1.37 -7.73,-2.05 -9.69,-2.05l-127.42 0c-11.35,0 -22.31,2.34 -32.88,7.04 -10.57,4.7 -20.46,10.87 -29.66,18.5 -9.2,7.63 -17.32,16.24 -24.36,25.84 -7.05,9.59 -12.53,19.27 -16.45,29.06 -2.74,7.05 -5.77,14.58 -9.1,22.61 -3.32,8.02 -6.46,16.15 -9.39,24.37 -2.94,8.22 -5.38,16.54 -7.34,24.95 -1.96,8.42 -2.94,16.74 -2.94,24.96zm130.36 -102.17c0,-5.09 1.86,-9.2 5.58,-12.33 3.72,-3.14 8.12,-5.58 13.21,-7.34 5.09,-1.77 10.47,-2.84 16.15,-3.23 5.67,-0.4 10.27,-0.59 13.79,-0.59l15.86 0c3.91,0.78 7.63,2.15 11.16,4.11 3.52,1.96 5.28,5.28 5.28,9.98 0,5.09 -1.86,9.1 -5.58,12.04 -3.72,2.93 -8.22,5.19 -13.5,6.75 -5.29,1.57 -10.67,2.55 -16.15,2.94 -5.48,0.39 -9.98,0.58 -13.51,0.58 -1.17,0 -3.81,-0.09 -7.92,-0.29 -4.11,-0.19 -6.76,-0.29 -7.93,-0.29 -3.13,-0.79 -6.66,-1.96 -10.57,-3.53 -3.91,-1.56 -5.87,-4.5 -5.87,-8.8zm206.1 118.02c2.35,10.18 8.42,18.69 18.2,25.54 9.79,6.85 19.77,10.28 29.95,10.28l125.07 0c3.92,0 8.22,-0.69 12.92,-2.06 4.7,-1.37 9,-3.42 12.92,-5.96 3.91,-2.55 7.24,-5.78 9.98,-9.5 2.74,-3.81 4.11,-7.83 4.11,-12.13 0,-5.58 -2.25,-10.67 -6.75,-15.17 -4.5,-4.6 -9.49,-6.85 -14.97,-6.85l-76.93 0c-5.48,0 -9.29,-2.65 -11.45,-7.93 -2.15,-5.28 -3.23,-9.69 -3.23,-13.11l0 -4.11c0,-2.35 0.2,-3.72 0.59,-4.11 0.78,-2.35 2.25,-6.46 4.4,-12.34 2.16,-5.87 4.51,-12.23 7.05,-18.98 2.55,-6.85 4.89,-13.21 7.05,-19.08 2.15,-5.88 3.62,-9.99 4.4,-12.24 3.13,-7.83 8.61,-15.17 16.44,-22.02 7.83,-6.85 16.05,-10.66 24.66,-11.45 5.48,-0.78 12.24,-1.37 20.26,-1.76 8.03,-0.39 15.66,-1.47 22.9,-3.13 7.24,-1.76 13.51,-4.8 18.79,-9.1 5.29,-4.31 7.93,-10.77 7.93,-19.38 0,-6.65 -2.74,-11.25 -8.22,-13.99 -5.48,-2.74 -11.94,-4.6 -19.38,-5.58 -7.44,-0.98 -14.97,-1.67 -22.6,-2.06 -7.64,-0.39 -13.61,-1.76 -17.91,-4.11 -2.74,-1.56 -4.11,-4.3 -4.11,-8.22 0,-2.74 -0.1,-5.87 -0.3,-9.39 -0.19,-3.43 -0.88,-6.66 -2.05,-9.59 -1.18,-2.94 -3.33,-5.39 -6.46,-7.34 -3.13,-1.96 -7.64,-2.94 -13.51,-2.94l-35.82 0c-6.65,0 -12.33,1.37 -17.02,4.11 -4.7,2.74 -9.01,6.07 -12.92,9.98 -3.92,3.92 -7.64,8.22 -11.16,12.92 -3.52,4.7 -7.24,8.81 -11.16,12.33 -1.95,1.96 -4.3,3.23 -7.04,3.82 -2.74,0.59 -5.58,1.07 -8.52,1.47 -2.93,0.39 -5.87,0.88 -8.8,1.46 -2.94,0.59 -5.58,1.86 -7.93,3.82 -4.7,4.31 -8.52,8.32 -11.45,12.04 -2.94,3.72 -4.41,8.71 -4.41,14.97 0,6.66 1.37,11.06 4.11,13.21 2.74,2.16 5.88,3.72 9.4,4.7 3.52,0.98 6.65,2.25 9.39,3.82 2.74,1.56 4.12,5.28 4.12,11.15 0,4.31 -0.59,8.22 -1.77,11.75l-27.01 75.16c-1.56,3.91 -2.25,8.12 -2.05,12.62 0.19,4.5 0.29,8.71 0.29,12.63l0 15.85zm250.14 0c2.35,10.18 7.73,18.69 16.15,25.54 8.42,6.85 17.71,10.28 27.89,10.28 9,0 16.83,-3.72 23.49,-11.16 6.65,-7.34 11.55,-14.97 14.68,-22.8l41.1 -108.83c1.18,-2.74 3.33,-6.16 6.46,-10.27 3.13,-4.11 6.66,-7.93 10.57,-11.35 3.91,-3.53 8.03,-6.56 12.33,-9.1 4.31,-2.55 8.22,-3.82 11.75,-3.82l121.54 0c8.62,0 17.03,-3.04 25.25,-9.2 8.22,-6.17 12.33,-14 12.33,-23.49 0,-5.09 -2.25,-9.59 -6.75,-13.31 -4.5,-3.81 -9.49,-5.67 -14.97,-5.67l-171.46 0c-10.57,0 -21.14,2.34 -31.71,7.04 -10.57,4.7 -20.45,10.87 -29.65,18.5 -9.2,7.63 -17.33,16.05 -24.37,25.25 -7.05,9.2 -12.33,18.49 -15.86,27.89l-27.01 73.4c-1.56,3.91 -2.25,8.12 -2.05,12.62 0.19,4.5 0.29,8.71 0.29,12.63l0 15.85zm302.99 -17.03c0,10.57 1.67,19.48 4.99,26.72 3.33,7.24 10.08,13.6 20.26,19.08 2.35,1.18 6.17,2.65 11.45,4.41 5.29,1.76 9.1,2.64 11.45,2.64l129.18 0c9.4,0 19.28,-2.35 29.66,-7.05 10.37,-4.69 20.25,-10.66 29.65,-17.91 9.39,-7.24 17.71,-15.26 24.96,-24.07 7.24,-8.81 12.42,-17.52 15.56,-26.13l27.01 -71.64c1.95,-5.48 3.03,-10.37 3.23,-14.68 0.19,-4.3 0.29,-9.2 0.29,-14.68 0,-6.65 -0.88,-13.11 -2.64,-19.37 -1.76,-6.27 -4.41,-11.94 -7.93,-17.03 -3.52,-5.09 -8.12,-9.1 -13.8,-12.04 -5.68,-2.94 -12.23,-4.4 -19.67,-4.4 -9.39,0 -17.32,3.71 -23.78,11.15 -6.46,7.44 -11.26,15.07 -14.39,22.9l-42.86 112.74c-4.31,10.57 -11.65,18.3 -22.02,23.2 -10.38,4.89 -20.65,7.34 -30.83,7.34l-13.5 0c-10.97,-2.74 -16.45,-9.4 -16.45,-19.97l0 -2.93c0,-1.57 0.2,-2.35 0.59,-2.35l42.87 -118.03c0,-0.39 0.19,-1.95 0.58,-4.69 0.39,-2.74 0.79,-4.7 1.18,-5.88l0 -2.93c0,-6.27 -1.27,-11.26 -3.82,-14.98 -2.54,-3.71 -6.95,-5.57 -13.21,-5.57 -9.79,0 -19.77,2.34 -29.95,7.04 -10.18,4.7 -19.67,10.77 -28.48,18.21 -8.8,7.43 -16.73,15.75 -23.78,24.95 -7.04,9.2 -12.13,18.11 -15.26,26.72l-27.01 71.63c-1.57,4.31 -2.55,8.81 -2.94,13.51 -0.39,4.7 -0.59,9.4 -0.59,14.09zm302.99 17.03c2.35,10.18 8.32,18.69 17.91,25.54 9.59,6.85 19.67,10.28 30.24,10.28l127.42 0c1.57,0 4.41,-0.39 8.52,-1.17 4.11,-0.79 7.14,-1.57 9.1,-2.35 41.49,-13.31 70.66,-40.71 87.49,-82.21 5.87,-14.09 11.84,-28.58 17.91,-43.45 6.07,-14.88 9.1,-30.54 9.1,-46.98 0,-12.52 -2.55,-22.6 -7.63,-30.24 -5.09,-7.63 -13.9,-13.99 -26.43,-19.08 -1.95,-0.78 -4.89,-1.66 -8.81,-2.64 -3.91,-0.98 -6.26,-1.47 -7.04,-1.47l-75.16 0c-5.09,0 -9.1,-2.55 -12.04,-7.63 -2.94,-5.09 -4.4,-9.6 -4.4,-13.51l0 -5.28 42.86 -118.03c1.57,-2.74 2.35,-7.24 2.35,-13.51 0,-5.87 -1.27,-10.76 -3.82,-14.68 -2.54,-3.91 -6.94,-5.87 -13.21,-5.87 -10.18,0 -20.45,2.55 -30.83,7.64 -10.37,5.09 -20.06,11.54 -29.06,19.37 -9.01,7.83 -17.03,16.54 -24.08,26.13 -7.04,9.59 -12.33,18.89 -15.85,27.9l-92.78 250.14c-1.56,3.91 -2.25,8.22 -2.05,12.92 0.19,4.69 0.29,8.8 0.29,12.33l0 15.85zm99.82 -37.58l0 -4.11c0,-1.96 0.2,-2.94 0.59,-2.94l24.66 -66.35c4.31,-10.57 11.65,-18.3 22.02,-23.19 10.38,-4.89 20.65,-7.34 30.83,-7.34l13.51 0c5.08,0.78 9.1,3.03 12.03,6.75 2.94,3.72 4.41,8.12 4.41,13.21 0,1.96 -0.2,3.62 -0.59,4.99 -0.39,1.37 -0.98,3.23 -1.76,5.58 -3.92,10.57 -7.54,21.53 -10.86,32.89 -3.33,11.35 -7.64,21.62 -12.92,30.82 -5.29,9.2 -12.04,16.74 -20.26,22.61 -8.22,5.87 -19.18,8.81 -32.88,8.81 -8.22,0 -15.07,-1.27 -20.56,-3.82 -5.48,-2.54 -8.22,-8.51 -8.22,-17.91zm204.93 21.73c0,10.18 1.67,18.89 4.99,26.13 3.33,7.24 10.08,13.4 20.26,18.49 2.35,1.18 6.17,2.65 11.45,4.41 5.29,1.76 9.1,2.64 11.45,2.64l172.05 0c3.52,0 7.63,-0.78 12.33,-2.35 4.7,-1.56 9,-3.72 12.92,-6.26 3.91,-2.55 7.24,-5.68 9.98,-9.2 2.74,-3.62 4.11,-7.54 4.11,-11.84 0,-5.58 -2.54,-10.67 -7.63,-15.17 -5.09,-4.6 -10.38,-6.85 -15.86,-6.85l-121.55 0c-3.52,0 -7.43,-1.37 -11.74,-4.11 -4.31,-2.74 -6.46,-6.07 -6.46,-9.99 0,-2.64 1.27,-5.48 3.82,-8.41 2.54,-2.94 5.48,-5.48 8.81,-7.64 3.32,-2.15 6.85,-3.91 10.57,-5.28 3.71,-1.37 6.75,-2.06 9.1,-2.06l123.89 0c0,0 1.37,-0.48 4.11,-1.46 2.74,-0.98 4.9,-1.86 6.46,-2.65 8.22,-3.42 15.17,-8.22 20.85,-14.28 5.67,-6.07 10.27,-12.82 13.8,-20.16 3.52,-7.44 6.06,-15.37 7.63,-23.79 1.57,-8.31 2.35,-16.63 2.35,-24.85 0,-11.65 -1.96,-21.34 -5.87,-28.97 -3.92,-7.63 -11.55,-13.7 -22.9,-18.4 -1.96,-0.78 -5.19,-1.86 -9.69,-3.23 -4.5,-1.37 -7.73,-2.05 -9.69,-2.05l-127.42 0c-11.35,0 -22.31,2.34 -32.88,7.04 -10.57,4.7 -20.46,10.87 -29.66,18.5 -9.2,7.63 -17.32,16.24 -24.36,25.84 -7.05,9.59 -12.53,19.27 -16.45,29.06 -2.74,7.05 -5.77,14.58 -9.1,22.61 -3.32,8.02 -6.46,16.15 -9.39,24.37 -2.94,8.22 -5.38,16.54 -7.34,24.95 -1.96,8.42 -2.94,16.74 -2.94,24.96zm130.36 -102.17c0,-5.09 1.86,-9.2 5.58,-12.33 3.72,-3.14 8.12,-5.58 13.21,-7.34 5.09,-1.77 10.47,-2.84 16.15,-3.23 5.67,-0.4 10.27,-0.59 13.79,-0.59l15.86 0c3.91,0.78 7.63,2.15 11.16,4.11 3.52,1.96 5.28,5.28 5.28,9.98 0,5.09 -1.86,9.1 -5.58,12.04 -3.72,2.93 -8.22,5.19 -13.5,6.75 -5.29,1.57 -10.67,2.55 -16.15,2.94 -5.48,0.39 -9.98,0.58 -13.51,0.58 -1.17,0 -3.81,-0.09 -7.92,-0.29 -4.11,-0.19 -6.76,-0.29 -7.93,-0.29 -3.13,-0.79 -6.66,-1.96 -10.57,-3.53 -3.91,-1.56 -5.87,-4.5 -5.87,-8.8zm175.57 118.02c2.35,10.18 7.73,18.69 16.15,25.54 8.42,6.85 17.71,10.28 27.89,10.28 9,0 16.83,-3.72 23.49,-11.16 6.65,-7.34 11.55,-14.97 14.68,-22.8l41.1 -108.83c1.18,-2.74 3.33,-6.16 6.46,-10.27 3.13,-4.11 6.66,-7.93 10.57,-11.35 3.91,-3.53 8.03,-6.56 12.33,-9.1 4.31,-2.55 8.22,-3.82 11.75,-3.82l121.54 0c8.62,0 17.03,-3.04 25.25,-9.2 8.22,-6.17 12.33,-14 12.33,-23.49 0,-5.09 -2.25,-9.59 -6.75,-13.31 -4.5,-3.81 -9.49,-5.67 -14.97,-5.67l-171.46 0c-10.57,0 -21.14,2.34 -31.71,7.04 -10.57,4.7 -20.45,10.87 -29.65,18.5 -9.2,7.63 -17.33,16.05 -24.37,25.25 -7.05,9.2 -12.33,18.49 -15.86,27.89l-27.01 73.4c-1.56,3.91 -2.25,8.12 -2.05,12.62 0.19,4.5 0.29,8.71 0.29,12.63l0 15.85zm585.24 -71.97l-119.83 -75.37c17.87,20.45 49.52,43.9 72.7,62.2 85.33,67.36 60.98,112.33 -11.8,54.11 -23.22,-18.58 -20.8,-28.4 -38.76,-51.55 -23.54,3.66 -15.84,18.37 -76.55,-31.1 5.92,-34.87 28,-23.17 32.66,-43.14 4.32,-18.49 -9.81,4.46 3.64,-22.61 46.32,-93.18 23.93,-193.13 -49.66,-253.45 -37.04,-30.37 -61.53,-34.55 -114.74,-47.77l8.88 -118.12c-15.13,23.39 -20.99,59.69 -34.16,86.32 -37.83,76.5 -97.25,133.23 -174.65,171.88 -122.28,61.06 -253.39,45.12 -369.01,-22.26 11.61,-24.79 61.46,-93.96 82.65,-132.77 -4.68,9.37 -52.19,63.94 -62.74,76.28 -17.04,19.95 -46.85,64.83 -86.59,51.13 -7.44,-51.96 58.33,-81.59 81.65,-95.38 1.31,-26.96 -10.01,-18.63 10.16,-43.49 54.06,-66.59 36.76,-8.76 68.81,0.04 36.09,9.92 91.96,51.37 182.66,15.79 64.86,-25.44 121.92,-82.43 131.77,-175.36 172.89,9.77 340.27,13.21 444.68,158.17 38.59,53.57 72.15,114.69 78.61,203.05 3.24,44.53 -1.03,90.31 -12.91,132.3 -7.47,26.44 -31.12,87.22 -47.47,101.1zm37.23 -1004.29l205.22 16.5 -9.87 128.88 -205.12 -15.56 -360.72 -27.94 123.42 84.59 -15.99 209.72 -233.52 -17.26 37.5 -497.04 197.63 87.03c57.63,26.34 189.07,26.32 261.45,31.08zm0 0l205.22 16.5 -9.87 128.88 -205.12 -15.56 9.77 -129.82zm-9.77 129.82l205.12 15.56 9.87 -128.88 -205.22 -16.5 11.91 -148.17 408.7 31.43 -30.73 409.98 -408.38 -31.53 8.73 -131.89zm274.89 -70.03c20.84,10.25 72.41,23.6 53.42,54.64 -12.72,20.78 -70.02,28.07 -88.13,7.79 -8.26,-9.6 -3.5,-63.36 -2.4,-76.83l57.63 -22.98c3.16,31.42 -11.48,17.26 -20.52,37.38zm-766.83 -385.02l272.36 -39.92c10.11,48.93 20.28,82.46 -9.82,132.22 -19.3,31.91 -54.83,58.74 -96.33,66.32 -97.16,17.76 -187,-71.67 -166.21,-158.62zm235.83 -74.08l-272.37 39.92 -25.23 1.03c2.54,-111.31 115.47,-180.69 214.9,-146.31 45.12,15.61 50.27,34.8 77.31,52.08 44.67,-1.67 110.26,0.49 131.14,33.23l-125.75 20.05z"/>
 </g>
</svg>
