<?xml version="1.0" encoding="UTF-8"?>
<!DOCTYPE svg PUBLIC "-//W3C//DTD SVG 1.0//EN" "http://www.w3.org/TR/2001/REC-SVG-20010904/DTD/svg10.dtd">
<!-- Creator: CorelDRAW 2017 -->
<svg xmlns="http://www.w3.org/2000/svg" xml:space="preserve" width="17.3566mm" height="16.2558mm" version="1.0" style="shape-rendering:geometricPrecision; text-rendering:geometricPrecision; image-rendering:optimizeQuality; fill-rule:evenodd; clip-rule:evenodd"
viewBox="0 0 1735.66 1625.58"
 xmlns:xlink="http://www.w3.org/1999/xlink">
 <defs>
  <style type="text/css">
   <![CDATA[
    .str0 {stroke:#FEFEFE;stroke-width:57.81;stroke-linecap:round;stroke-linejoin:round;stroke-miterlimit:22.9256}
    .fil1 {fill:none}
    .fil2 {fill:#373435}
    .fil0 {fill:#233447}
    .fil3 {fill:#FEFEFE;fill-rule:nonzero}
   ]]>
  </style>
 </defs>
 <g id="Capa_x0020_1">
  <metadata id="CorelCorpID_0Corel-Layer"/>
  <path class="fil0" d="M1213.1 1269.9c-9.92,-19.73 -27.62,-27.08 -40.21,-44.67 3.46,-9.61 -1.38,-1.11 5.54,-11.08 10.52,-15.17 22.42,-19.12 41.3,-15.17 3.07,5.45 5.34,17.92 11.54,23.69 7.78,7.26 12.51,2.71 21.34,12.77 9.94,-3.69 26.27,-18.65 44.23,-38.1 -10.27,-35.38 -13.13,-69.12 -8.26,-100.44 -23.37,29.05 -106.15,120.14 -122.72,116.57 -12.38,-23.51 42.17,-22.84 66.71,-113.56 13.14,-48.58 7.74,-481.59 6.46,-544.98 -1.79,-88.7 9.74,-200.97 -118.26,-252.69 -56.84,-22.96 -278.26,-14.11 -354.62,-13.34 -81.25,0.82 -298.66,-10.65 -358.69,13.08 -44.49,17.58 -76.54,48.69 -97.1,87.32 -27.78,52.19 -21.61,98.3 -21.63,161.71 -0.02,68.05 -6.05,498.67 5.48,546.32 15.43,63.79 44.86,77.59 64.93,99.9 6.26,6.96 4.86,2.37 7.3,13.27 -17.39,-3.29 -8.91,-2.37 -22.38,-13.96 -41.84,-35.97 -74.02,-71.18 -108.29,-115.16 -34.01,-43.66 -65.44,-106.77 -87.18,-167.56 -138.4,-386.93 151.31,-846.64 629.32,-843.1 474.16,3.51 778.25,495.09 584.77,905.13 5.25,-4.11 10.78,-8.1 16.59,-11.97 29.84,-19.87 55.74,-24 74.47,-27.29 164.83,-475.88 -215.59,-963.92 -726.81,-935.41 -492.72,27.48 -804.55,515.56 -637.95,956.58 44.68,118.28 112.29,208.77 202.61,287.38 11.07,9.63 29.06,24.87 39.4,30.53 -5.14,22.21 -89.66,185.22 -106.4,219.46 -14.22,29.09 -56.25,86.96 -29.32,116.72 14.46,15.98 42.33,19.19 59.36,3.38 10.29,-9.54 19.89,-37.62 28.38,-52.19l957.44 -0.22c17.06,7.55 18.77,33.27 30.42,47.53 13.06,15.97 38.59,21.72 58.45,5.58 33.7,-27.37 -7.61,-86.15 -22.6,-115.88l-107.43 -221.7 13.81 -8.45zm-888.36 209.08l879.33 1.81 -38.99 -81.86 -798.76 -0.29 -41.58 80.34zm80.88 -163.72c81.06,4.39 300.86,1.36 376.21,0.82l168.55 0.06c39.06,-0.01 44.61,-10.82 74.31,-11.65 30.16,-0.84 61.88,0.02 92.27,-0.16 -2.8,-11.54 -25.87,-56.89 -33.3,-66.54 -87.63,5.13 -239.1,1.35 -329.27,2.09l-282.24 -0.87c-23.65,-1.07 -25.21,-7.92 -34.99,9.79 -9.41,17.04 -27.34,51.19 -31.54,66.46zm-15.5 -196.79c38.76,5.11 78.26,2.37 117.31,2.26 30.71,0 28.09,-20.16 14.24,-35.15 -11.51,-12.43 -24.43,-21.53 -36.22,-34.34 -23.29,-25.31 -44,-48.78 -67.87,-73.3 -28.54,-29.31 -58.62,-55.16 -48.21,20.19 4.68,33.9 7.6,97.76 20.75,120.34zm822.98 151.43l39.51 -34.46c-8.83,-10.06 -13.56,-5.51 -21.34,-12.77 -6.2,-5.77 -8.47,-18.24 -11.54,-23.69 -18.88,-3.95 -30.78,0 -41.3,15.17 -6.92,9.97 -2.08,1.47 -5.54,11.08 12.59,17.59 30.29,24.94 40.21,44.67zm-98.71 -741.3l-0.31 -19.04c-20.35,-44.68 -33.17,-40.54 -89.22,-40.41l-407.67 0.01c-44.41,0.01 -89.13,0.82 -133.44,-0.69 -92.5,-3.15 -70.07,66.59 -70.22,204.06 -0.22,211.46 -33.52,186.97 219.34,186.97l403.79 0.04c48.27,0.2 76.84,-7.7 77.9,-57.45 1.86,-87.53 2.99,-186.51 -0.17,-273.49zm-486.43 -113.56c24.71,8.07 248.39,8.43 271.96,-0.17 5.57,-20.92 -10.56,-67.11 -24.86,-82.41 -16.65,-17.8 -80.89,-10.67 -108.91,-10.35 -25.87,0.3 -94.41,-5.67 -111.18,8.04 -11.93,9.75 -32.72,64.42 -27.01,84.89zm517.92 700.2c13.4,-13.57 25.18,-146.03 22.96,-160.18 -21.65,-13.38 -35.65,6.77 -65.49,38.95 -20.39,21.99 -37.82,41.12 -58.3,63.24 -7.57,8.18 -73.52,57.52 -20.57,63.21 22.76,2.45 107.84,4.77 121.4,-5.22zm-525.09 -146.18c-29.89,12.86 -20.41,68.7 -20.2,103.43 0.34,57.43 23.37,47.95 75.4,47.88 35.32,-0.04 228.06,4.69 244.79,-3.06 26.77,-12.39 16.88,-72.46 16.89,-103.95 0.02,-55.7 -24.98,-46.5 -73.52,-46.71 -34.41,-0.15 -227.68,-4.34 -243.36,2.41z"/>
  <g>
   <path class="fil1 str0" d="M1488.45 1549.06l0.46 0c33.12,-51.32 65.8,-101.32 97.66,-155.73 27.61,-47.15 63.8,-112.76 84.42,-167.95 27.5,-73.55 31.48,-133.11 -10.01,-198.36 -14.74,-23.21 -39.48,-48.46 -62.72,-63.24 -44.45,-28.27 -76,-24.55 -93.66,-31.78l-31.84 0c-17.4,7.12 -51.56,3.96 -93.49,31.88 -92.78,61.77 -114.23,155.44 -72.91,261.46 45.74,117.35 119.93,227.41 182.09,323.72zm-13.62 -518.83c-144.2,22.99 -105.63,229.48 29.19,209.23 53.6,-8.05 97.91,-56.69 89.19,-120.46 -7.08,-51.79 -58.21,-98.36 -118.38,-88.77z"/>
   <path id="1" class="fil2" d="M1488.45 1549.06l0.46 0c33.12,-51.32 65.8,-101.32 97.66,-155.73 27.61,-47.15 63.8,-112.76 84.42,-167.95 27.5,-73.55 31.48,-133.11 -10.01,-198.36 -14.74,-23.21 -39.48,-48.46 -62.72,-63.24 -44.45,-28.27 -76,-24.55 -93.66,-31.78l-31.84 0c-17.4,7.12 -51.56,3.96 -93.49,31.88 -92.78,61.77 -114.23,155.44 -72.91,261.46 45.74,117.35 119.93,227.41 182.09,323.72zm-13.62 -518.83c-144.2,22.99 -105.63,229.48 29.19,209.23 53.6,-8.05 97.91,-56.69 89.19,-120.46 -7.08,-51.79 -58.21,-98.36 -118.38,-88.77z"/>
  </g>
  <g>
   <path class="fil3" d="M1499.63 1210.26l8.78 58.4 0 0 -15.22 1.54 -14.84 -0.01 -14.29 -1.52 -13.7 -2.95 -13 -4.34 -12.18 -5.6 -11.32 -6.74 -10.39 -7.76 -9.44 -8.65 -8.47 -9.44 -7.47 -10.12 -6.46 -10.65 -5.5 -11.14 -4.5 -11.54 -3.49 -11.84 -2.5 -12.09 -1.46 -12.26 -0.44 -12.37 0.64 -12.41 1.75 -12.35 2.88 -12.23 4.07 -12.01 5.28 -11.66 6.53 -11.23 7.79 -10.63 9.05 -9.92 10.3 -9.07 11.49 -8.08 12.62 -6.97 13.69 -5.79 14.71 -4.53 15.64 -3.23 9.3 58.32 -10.34 2.13 -9.15 2.83 -8.09 3.43 -7.12 3.93 -6.23 4.38 -5.44 4.79 -4.73 5.2 -4.07 5.57 -3.45 5.93 -2.84 6.28 -2.23 6.59 -1.62 6.87 -0.99 7.11 -0.38 7.23 0.26 7.33 0.88 7.32 1.5 7.25 2.09 7.08 2.66 6.84 3.22 6.54 3.74 6.17 4.21 5.7 4.67 5.22 5.1 4.69 5.55 4.14 5.96 3.56 6.4 2.94 6.88 2.3 7.44 1.61 8.07 0.86 8.72 0.01 9.48 -0.96 0 0zm0 0c16.12,-2.42 31.17,8.69 33.59,24.81 2.42,16.12 -8.69,31.17 -24.81,33.59l-8.78 -58.4zm64.32 -87.26l58.52 -8 0 0 0.82 7.38 0.45 7.3 0.09 7.23 -0.28 7.14 -0.64 7.04 -0.98 6.91 -1.32 6.79 -1.65 6.64 -1.97 6.52 -2.29 6.32 -2.57 6.17 -2.88 6 -3.12 5.77 -3.4 5.61 -3.66 5.4 -3.89 5.19 -4.15 5.01 -4.36 4.75 -4.55 4.52 -4.74 4.29 -4.93 4.06 -5.13 3.83 -5.29 3.57 -5.44 3.33 -5.6 3.07 -5.74 2.8 -5.86 2.54 -5.99 2.27 -6.12 1.99 -6.19 1.69 -6.3 1.42 -6.38 1.11 -8.78 -58.4 3.62 -0.63 3.56 -0.8 3.53 -0.97 3.46 -1.13 3.41 -1.29 3.34 -1.44 3.26 -1.6 3.18 -1.75 3.12 -1.89 2.99 -2.03 2.91 -2.17 2.79 -2.3 2.7 -2.43 2.57 -2.56 2.44 -2.67 2.29 -2.75 2.17 -2.91 2.04 -3 1.88 -3.11 1.76 -3.23 1.58 -3.3 1.43 -3.43 1.27 -3.52 1.09 -3.6 0.93 -3.72 0.74 -3.81 0.56 -3.93 0.36 -4.04 0.16 -4.12 -0.05 -4.27 -0.27 -4.38 -0.5 -4.48 0 0zm0 0c-2.2,-16.15 9.11,-31.06 25.26,-33.26 16.15,-2.2 31.06,9.11 33.26,25.26l-58.52 8zm-84.47 -63.61l-9.3 -58.32 0 0 7.24 -0.96 7.19 -0.53 7.11 -0.14 7.04 0.26 6.94 0.62 6.88 1.01 6.69 1.36 6.55 1.68 6.44 2.03 6.27 2.34 6.09 2.63 5.93 2.91 5.74 3.19 5.55 3.44 5.35 3.69 5.17 3.92 4.94 4.15 4.72 4.33 4.52 4.55 4.32 4.77 4.06 4.94 3.81 5.06 3.59 5.26 3.36 5.44 3.09 5.58 2.81 5.69 2.55 5.83 2.27 5.96 1.99 6.1 1.67 6.18 1.37 6.26 1.04 6.38 -58.52 8 -0.54 -3.3 -0.73 -3.34 -0.89 -3.32 -1.07 -3.28 -1.25 -3.28 -1.43 -3.27 -1.59 -3.21 -1.75 -3.16 -1.9 -3.08 -2.07 -3.02 -2.23 -2.98 -2.34 -2.84 -2.46 -2.71 -2.62 -2.63 -2.74 -2.53 -2.84 -2.37 -2.93 -2.24 -3.05 -2.09 -3.15 -1.96 -3.2 -1.77 -3.29 -1.63 -3.37 -1.45 -3.43 -1.28 -3.48 -1.09 -3.57 -0.92 -3.63 -0.74 -3.62 -0.53 -3.74 -0.34 -3.8 -0.14 -3.85 0.08 -3.93 0.29 -3.98 0.52 0 0zm0 0c-16.1,2.56 -31.25,-8.41 -33.81,-24.51 -2.56,-16.1 8.41,-31.25 24.51,-33.81l9.3 58.32z"/>
   <path id="1" class="fil2" d="M1474.83 1030.23c-144.2,22.99 -105.63,229.48 29.19,209.23 53.6,-8.05 97.91,-56.69 89.19,-120.46 -7.08,-51.79 -58.22,-98.36 -118.38,-88.77z"/>
  </g>
 </g>
</svg>
