<?xml version="1.0" encoding="UTF-8"?>
<!DOCTYPE svg PUBLIC "-//W3C//DTD SVG 1.0//EN" "http://www.w3.org/TR/2001/REC-SVG-20010904/DTD/svg10.dtd">
<!-- Creator: CorelDRAW 2017 -->
<svg xmlns="http://www.w3.org/2000/svg" xml:space="preserve" width="22.8598mm" height="16.2558mm" version="1.0" style="shape-rendering:geometricPrecision; text-rendering:geometricPrecision; image-rendering:optimizeQuality; fill-rule:evenodd; clip-rule:evenodd"
viewBox="0 0 2285.98 1625.58"
 xmlns:xlink="http://www.w3.org/1999/xlink">
 <defs>
  <style type="text/css">
   <![CDATA[
    .fil1 {fill:#FEFEFE}
    .fil0 {fill:#373435}
    .fil5 {fill:#0F0F0F}
    .fil4 {fill:#101110}
    .fil2 {fill:#111212}
    .fil3 {fill:#131414}
   ]]>
  </style>
 </defs>
 <g id="Capa_x0020_1">
  <metadata id="CorelCorpID_0Corel-Layer"/>
  <g id="_2108932578400">
   <g>
    <path class="fil0" d="M1817.36 1556.09l-122.86 -77.27c18.32,20.97 50.76,45.01 74.54,63.78 87.48,69.05 62.52,115.16 -12.11,55.47 -23.8,-19.05 -21.31,-29.12 -39.73,-52.85 -24.13,3.76 -16.24,18.83 -78.48,-31.88 6.06,-35.76 28.7,-23.76 33.48,-44.23 4.43,-18.97 -10.05,4.56 3.74,-23.18 47.49,-95.54 24.53,-198 -50.92,-259.85 -37.98,-31.14 -63.08,-35.42 -117.63,-48.98l9.1 -121.09c-15.52,23.98 -21.52,61.19 -35.02,88.49 -38.78,78.43 -99.7,136.59 -179.06,176.22 -125.37,62.6 -259.78,46.26 -378.32,-22.83 11.9,-25.41 63.01,-96.32 84.73,-136.11 -4.79,9.6 -53.51,65.55 -64.32,78.21 -17.46,20.45 -48.03,66.46 -88.77,52.42 -7.63,-53.28 59.79,-83.65 83.71,-97.79 1.34,-27.65 -10.27,-19.11 10.42,-44.59 55.42,-68.28 37.67,-8.99 70.53,0.04 37.01,10.17 94.29,52.66 187.28,16.19 66.49,-26.08 125,-84.51 135.09,-179.79 177.25,10.02 348.86,13.54 455.9,162.16 39.57,54.92 73.98,117.59 80.59,208.18 3.33,45.66 -1.05,92.59 -13.22,135.64 -7.67,27.1 -31.91,89.42 -48.67,103.64z"/>
    <path class="fil0" d="M1855.52 526.47l210.4 16.91 -10.11 132.13 -210.3 -15.95 -369.83 -28.64 126.53 86.73 -16.38 215 -239.42 -17.69 38.45 -509.58 202.62 89.23c59.08,27 193.83,26.98 268.04,31.86z"/>
    <path class="fil0" d="M1845.51 659.56l210.3 15.95 10.11 -132.13 -210.4 -16.91 12.22 -151.91 419.01 32.22 -31.5 420.33 -418.7 -32.33 8.96 -135.22z"/>
    <path class="fil0" d="M1341.16 193.03l279.23 -40.93c10.36,50.17 20.78,84.55 -10.07,135.56 -19.79,32.71 -56.21,60.22 -98.77,68 -99.6,18.2 -191.71,-73.49 -170.39,-162.63z"/>
    <path class="fil0" d="M1582.93 117.08l-279.24 40.92 -25.87 1.07c2.61,-114.13 118.39,-185.26 220.33,-150 46.26,15.99 51.54,35.67 79.26,53.38 45.8,-1.71 113.04,0.51 134.45,34.08l-128.93 20.55z"/>
    <path class="fil1" d="M2127.34 587.77c21.36,10.5 74.23,24.19 54.76,56.01 -13.04,21.31 -71.79,28.78 -90.36,7.99 -8.46,-9.85 -3.57,-64.96 -2.45,-78.77l59.09 -23.56c3.23,32.22 -11.78,17.7 -21.04,38.33z"/>
    <path class="fil1" d="M1855.52 526.47l210.4 16.91 -10.11 132.13 -210.3 -15.95 10.01 -133.09z"/>
   </g>
   <path class="fil0" d="M291.15 900.67l68.51 0c45.13,-18.54 135.97,-21.18 200.29,-101 130.54,-162.01 101.85,-419.76 -82.95,-519.07 -40.58,-21.8 -83.65,-22.77 -116.12,-36.91l-89.36 0c-33.61,15.8 -71.12,16.47 -113.49,40.48 -191.33,108.46 -202.79,384.84 -71.78,517.23 97.44,98.48 130.82,73.09 204.9,99.27zm-22.51 -494.35c-120.81,61.44 -137.38,183.67 -78.88,269.12 20.51,29.97 43.05,43.19 78.9,62.27l0.63 54.22 101.4 -0.14 0.92 -56.6c137.1,-37.27 153.28,-276.17 0.07,-326.56l-0.56 -55.71 -101.28 -0.55 -1.2 53.95z"/>
   <path class="fil0" d="M670.95 870.22l169.5 0c0,-49.08 0.01,-98.17 0,-147.25 -0.01,-37.79 -13.03,-112.93 31.78,-113.19 44.98,-0.26 31.88,75.39 31.87,113.19 -0.02,49.08 0,98.17 0,147.25l168.74 0c0,-49.08 0.03,-98.17 0,-147.25 -0.02,-39.1 -11.21,-108.65 32.39,-111.48 45.33,-2.95 31.87,74.53 31.85,111.48 -0.03,49.08 -0.01,98.17 -0.01,147.25l169.53 0c0,-58.6 6.97,-303 -8.23,-340.84 -28.69,-71.37 -147.31,-95.78 -238.95,-11.83 -36.91,-27.48 -41.59,-55.74 -113.82,-52.12 -53.3,2.67 -91.75,30.71 -110.48,56.88l-2.42 -46.15 -160.52 0.49 -1.23 393.57z"/>
   <g>
    <path class="fil2" d="M629.49 1150.17l87.11 52.5c13.15,0.86 45.35,24.95 61.88,33.06l20.9 6.29 12.27 -18.78 -182.16 -73.07z"/>
    <path class="fil3" d="M650.38 1089.22l-69.28 -24.87 22.32 18.37c1.46,0.06 3.24,0.29 4.38,0.52l12.3 2.87c16.86,5.85 180.17,95.57 211.08,107.09l18.98 -25.03 -199.78 -78.95z"/>
    <path class="fil4" d="M603.83 1011.89l-30.25 -5.79 103.98 49.05 189.55 86.39 20.45 -27.12 -283.73 -102.53z"/>
    <path class="fil5" d="M872.66 1039.17c-13.54,-0.94 -298.12,-92.02 -321.45,-101.33l87.4 40.11 233.43 98.51c36.92,17.17 31.31,14.13 53.11,-17.62l-52.49 -19.67z"/>
   </g>
  </g>
 </g>
</svg>
