<?xml version="1.0" encoding="UTF-8"?>
<!DOCTYPE svg PUBLIC "-//W3C//DTD SVG 1.0//EN" "http://www.w3.org/TR/2001/REC-SVG-20010904/DTD/svg10.dtd">
<!-- Creator: CorelDRAW 2017 -->
<svg xmlns="http://www.w3.org/2000/svg" xml:space="preserve" width="24.9766mm" height="16.2558mm" version="1.0" style="shape-rendering:geometricPrecision; text-rendering:geometricPrecision; image-rendering:optimizeQuality; fill-rule:evenodd; clip-rule:evenodd"
viewBox="0 0 2497.66 1625.58"
 xmlns:xlink="http://www.w3.org/1999/xlink">
 <defs>
  <style type="text/css">
   <![CDATA[
    .fil2 {fill:#FEFEFE}
    .fil1 {fill:#373435}
    .fil0 {fill:black}
    .fil6 {fill:#0F0F0F}
    .fil5 {fill:#101110}
    .fil3 {fill:#111212}
    .fil4 {fill:#131414}
   ]]>
  </style>
 </defs>
 <g id="Capa_x0020_1">
  <metadata id="CorelCorpID_0Corel-Layer"/>
  <g id="_2108933047504">
   <path class="fil0" d="M376.72 1016.23l83.27 0c54.84,-22.52 165.25,-25.73 243.41,-122.74 158.66,-196.91 123.8,-510.17 -100.81,-630.87 -49.31,-26.5 -101.66,-27.67 -141.13,-44.85l-108.6 0c-40.85,19.2 -86.43,20.01 -137.94,49.2 -232.53,131.81 -246.46,467.72 -87.24,628.62 118.43,119.68 159.01,88.83 249.04,120.64zm321.07 -171.45c-21.12,-10.32 -176.62,-93.85 -199.94,-98.52 -28.97,-5.79 -62.67,-9.88 -96.77,-9.88l2.37 1.61c11.67,6.51 22.17,11.26 34.36,19.76l14.75 10.71c1.69,1.37 2.77,2.21 4.41,3.55 24.85,20.3 43.97,46.55 58.7,75.01 3.79,7.32 11.81,21.19 13.54,28.64l-62.07 0c-0.38,-4.51 -6.83,-18.73 -8.77,-23.07 -7.9,-17.75 -19.47,-34.58 -31.57,-49.61l-15.61 -17.02c-18.34,-15.34 -25.27,-21.57 -49.33,-31.85 -23.74,-10.15 -51.56,-17.74 -79.36,-17.73 -10.88,0.01 -21.76,0 -32.63,0 -11.5,0 -20.21,-0.79 -31.84,-0.79l-78.79 -11.94 0 -13.53c-6.32,-3.04 -6.42,-2.01 -6.37,-13.53 0.04,-6.77 0.23,-14 0.03,-20.72l-0.82 -19.07c0,-36.61 -1.09,-18.91 64.74,-37.93 22.11,-6.38 37.59,-12.55 55.19,-26.79 19.37,-15.68 16.63,-14.75 29.23,-32.04 6.16,-8.44 6.97,-10.85 10.82,-19.43 7.43,-16.52 14.04,-34.59 19.78,-51.84 6.12,-18.35 12.4,-44.63 17.62,-64.36 2.88,-10.88 5.49,-21.08 8.27,-32.32 2.69,-10.89 7.26,-20.64 13.44,-27.94 17.15,-20.25 36.23,-20.91 58.09,-23.89 7.23,-0.98 104.9,-0.17 121.56,-0.23 19.37,-0.08 48.11,8.15 60.69,21.29 6.58,6.88 11.86,16.87 15.97,25.41 4.43,9.19 6.76,20.32 10.18,30.41 8.56,25.29 27.06,95.66 26.97,115.48l-0.05 51.78c0.06,4.42 0.81,5.07 0.86,9.49 0.34,27.06 -0.66,46.48 -11.44,70.59 -4.5,10.07 -8.32,17.91 -16.55,24.05 -11.21,8.36 -16.06,8.95 -29.34,12.04 -0.27,3.21 -8.7,21.29 -10.58,26.04 -1.2,3.04 -2.45,6.28 -3.75,8.98 8.49,4.07 26.35,9.94 38.74,16.18l32.11 18.19 53.16 74.82zm-82.5 -358.28l-117.6 0.09c-1.03,-12.08 -2.13,-23.75 -3.21,-35.5 -0.72,-7.78 -3.57,-28.8 -2.78,-35.2l104.06 0.01 19.53 70.6zm-128.97 -130.9c29.28,6.63 20.01,50.28 -9.23,44.52 -29.37,-5.79 -20.45,-51.23 9.23,-44.52zm-334.78 309.59l-0.01 -23.91c20.69,-4.52 25.27,-1.95 53.78,-10.74 45.1,-13.91 67.73,-27.4 92.24,-68.53 4.07,-6.83 7.08,-14.19 10.91,-21.29 1.24,22.22 0,47.34 0.12,69.92 0.05,8.83 0.86,8.23 -4.88,12.45 -3.5,2.59 -6.24,4.69 -10.24,7.26 -23.75,15.22 -47.98,24.38 -77.23,29.41 -12.85,2.21 -52.96,7.48 -64.69,5.43zm329.99 -178.59l-116.91 0 5.73 -70.52 101.63 -0.26c3.28,0.33 2.61,-0.34 3.35,7.78 0.63,6.9 1.37,13.79 2.06,20.72 1.38,13.95 3.2,28.32 4.14,42.28zm111.13 96.76c13.25,2.64 24.64,14.99 21.09,31.46 -7.24,33.58 -58.99,23.98 -51.98,-10.71 2.58,-12.77 15.12,-23.89 30.89,-20.75zm-198.54 0.21c36.1,7.13 24.3,59.07 -10.02,51.96 -33.21,-6.89 -23.83,-58.64 10.02,-51.96z"/>
   <g>
    <path class="fil1" d="M2006.34 1556.09l-122.85 -77.27c18.32,20.97 50.76,45.01 74.54,63.77 87.48,69.06 62.52,115.17 -12.11,55.47 -23.8,-19.04 -21.32,-29.11 -39.73,-52.84 -24.13,3.76 -16.24,18.83 -78.48,-31.88 6.06,-35.76 28.7,-23.76 33.48,-44.23 4.43,-18.97 -10.06,4.56 3.73,-23.18 47.49,-95.54 24.53,-198 -50.91,-259.85 -37.98,-31.14 -63.08,-35.42 -117.63,-48.98l9.1 -121.09c-15.52,23.98 -21.52,61.19 -35.02,88.49 -38.78,78.43 -99.7,136.59 -179.06,176.22 -125.37,62.6 -259.78,46.26 -378.32,-22.83 11.9,-25.41 63.01,-96.32 84.73,-136.11 -4.79,9.6 -53.51,65.54 -64.32,78.2 -17.46,20.46 -48.03,66.47 -88.77,52.42 -7.63,-53.27 59.79,-83.64 83.71,-97.78 1.34,-27.65 -10.27,-19.11 10.42,-44.59 55.42,-68.28 37.67,-8.99 70.53,0.04 37.01,10.17 94.29,52.66 187.28,16.19 66.49,-26.08 125,-84.51 135.09,-179.79 177.25,10.02 348.86,13.54 455.9,162.16 39.56,54.92 73.98,117.59 80.59,208.18 3.33,45.66 -1.05,92.59 -13.23,135.64 -7.66,27.1 -31.9,89.42 -48.67,103.64z"/>
    <path class="fil1" d="M2044.51 526.47l210.4 16.91 -10.12 132.13 -210.29 -15.95 -369.83 -28.64 126.53 86.72 -16.39 215.01 -239.41 -17.69 38.45 -509.58 202.61 89.23c59.09,27 193.84,26.98 268.05,31.86z"/>
    <path class="fil1" d="M2034.5 659.56l210.29 15.95 10.12 -132.13 -210.4 -16.91 12.22 -151.91 419 32.22 -31.5 420.33 -418.69 -32.33 8.96 -135.22z"/>
    <path class="fil1" d="M1530.14 193.03l279.24 -40.93c10.36,50.17 20.78,84.55 -10.07,135.56 -19.79,32.71 -56.22,60.22 -98.77,68 -99.61,18.2 -191.71,-73.48 -170.4,-162.63z"/>
    <path class="fil1" d="M1771.92 117.08l-279.24 40.92 -25.87 1.07c2.61,-114.12 118.38,-185.26 220.33,-150 46.26,15.99 51.54,35.67 79.26,53.38 45.8,-1.7 113.04,0.51 134.45,34.08l-128.93 20.55z"/>
    <path class="fil2" d="M2316.32 587.77c21.37,10.5 74.24,24.19 54.77,56.01 -13.04,21.31 -71.79,28.78 -90.36,7.99 -8.46,-9.85 -3.58,-64.96 -2.46,-78.77l59.09 -23.56c3.24,32.22 -11.77,17.7 -21.04,38.33z"/>
    <path class="fil2" d="M2044.51 526.47l210.4 16.91 -10.12 132.13 -210.29 -15.95 10.01 -133.09z"/>
   </g>
   <path class="fil1" d="M859.94 870.22l169.5 0c0,-49.08 0.01,-98.17 0,-147.25 -0.01,-37.79 -13.03,-112.93 31.78,-113.19 44.98,-0.26 31.88,75.39 31.87,113.19 -0.02,49.08 0,98.17 0,147.25l168.74 0c0,-49.08 0.03,-98.17 0,-147.25 -0.02,-39.1 -11.21,-108.65 32.39,-111.48 45.33,-2.95 31.86,74.53 31.85,111.48 -0.03,49.08 -0.01,98.17 -0.01,147.25l169.53 0c0,-58.61 6.97,-303 -8.24,-340.84 -28.68,-71.37 -147.3,-95.78 -238.94,-11.83 -36.91,-27.48 -41.59,-55.74 -113.82,-52.12 -53.3,2.67 -91.75,30.71 -110.48,56.88l-2.42 -46.15 -160.52 0.49 -1.23 393.57z"/>
   <g>
    <path class="fil3" d="M818.48 1150.17l87.11 52.5c13.15,0.86 45.35,24.95 61.88,33.06l20.9 6.28 12.27 -18.78 -182.16 -73.06z"/>
    <path class="fil4" d="M839.37 1089.22l-69.28 -24.87 22.32 18.37c1.46,0.06 3.24,0.29 4.38,0.52l12.3 2.87c16.86,5.85 180.17,95.57 211.08,107.09l18.98 -25.03 -199.78 -78.95z"/>
    <path class="fil5" d="M792.82 1011.89l-30.25 -5.8 103.98 49.06 189.55 86.38 20.45 -27.11 -283.73 -102.53z"/>
    <path class="fil6" d="M1061.65 1039.17c-13.54,-0.94 -298.12,-92.02 -321.45,-101.33l87.4 40.11 233.43 98.51c36.92,17.17 31.31,14.13 53.11,-17.62l-52.49 -19.67z"/>
   </g>
  </g>
 </g>
</svg>
